<svg width="150" height="150" viewBox="0 0 150 150" fill="none" xmlns="http://www.w3.org/2000/svg">
<circle cx="75" cy="75" r="75" fill="white"/>
<path d="M117.378 60.2C117.923 54.5696 119.226 49.2392 116.922 43.8248C112.694 33.8888 99.9375 28.6136 90.0255 33.32C84.9567 35.72 80.6223 39.2312 75.0399 40.52C59.9727 43.9976 36.7167 25.4696 28.5159 47.0408C25.7007 54.4424 26.8359 64.196 31.9263 70.3832C33.5607 72.368 35.5575 74.096 36.7671 76.3664C40.0767 82.58 35.3919 89.408 33.2799 95.204C28.2639 108.901 47.1759 116.48 57.4407 117.877C74.4087 120.2 88.4055 100.76 105.28 108.68C117.04 114.2 127.36 100.76 125.2 87.32C123.786 78.5216 116.63 70.1 117.299 61.1336C117.323 60.824 117.35 60.5144 117.378 60.2Z" fill="#925CEC"/>
<path opacity="0.7" d="M117.378 60.2C117.923 54.5696 119.226 49.2392 116.922 43.8248C112.694 33.8888 99.9375 28.6136 90.0255 33.32C84.9567 35.72 80.6223 39.2312 75.0399 40.52C59.9727 43.9976 36.7167 25.4696 28.5159 47.0408C25.7007 54.4424 26.8359 64.196 31.9263 70.3832C33.5607 72.368 35.5575 74.096 36.7671 76.3664C40.0767 82.58 35.3919 89.408 33.2799 95.204C28.2639 108.901 47.1759 116.48 57.4407 117.877C74.4087 120.2 88.4055 100.76 105.28 108.68C117.04 114.2 127.36 100.76 125.2 87.32C123.786 78.5216 116.63 70.1 117.299 61.1336C117.323 60.824 117.35 60.5144 117.378 60.2Z" fill="white"/>
<path d="M36.5848 63.8624C41.1617 63.8624 44.872 60.1521 44.872 55.5752C44.872 50.9983 41.1617 47.288 36.5848 47.288C32.0079 47.288 28.2976 50.9983 28.2976 55.5752C28.2976 60.1521 32.0079 63.8624 36.5848 63.8624Z" fill="white" stroke="#2E353A" stroke-linecap="round" stroke-linejoin="round"/>
<path d="M35.9681 63.0392C40.545 63.0392 44.2553 59.3289 44.2553 54.752C44.2553 50.1751 40.545 46.4648 35.9681 46.4648C31.3912 46.4648 27.6809 50.1751 27.6809 54.752C27.6809 59.3289 31.3912 63.0392 35.9681 63.0392Z" fill="white" stroke="#2E353A" stroke-linecap="round" stroke-linejoin="round"/>
<path d="M35.9682 62.216C40.0904 62.216 43.4322 58.8742 43.4322 54.752C43.4322 50.6297 40.0904 47.288 35.9682 47.288C31.8459 47.288 28.5042 50.6297 28.5042 54.752C28.5042 58.8742 31.8459 62.216 35.9682 62.216Z" fill="#2E353A" stroke="#2E353A" stroke-linecap="round" stroke-linejoin="round"/>
<path d="M35.0921 49.1408C35.0921 49.1408 34.2689 47.0816 32.8289 45.6416C31.3889 44.2016 25.5185 43.2728 25.5185 43.2728C26.4664 44.1871 27.3284 45.1865 28.0937 46.2584C29.4305 48.1112 33.8537 52.3328 33.8537 52.3328C33.8537 52.3328 31.6937 50.48 29.7353 50.2736C27.7769 50.0672 22.8377 51.0968 22.5353 51.0968C22.2329 51.0968 24.3881 51.92 25.9337 52.64C27.4793 53.36 33.4481 53.9792 33.4481 53.9792C33.4481 53.9792 30.8753 54.6992 29.1281 55.3184C27.3809 55.9376 25.7249 60.464 25.7249 60.464C25.7249 60.464 27.9905 58.4048 29.9465 57.8912C31.9025 57.3776 34.6817 56.4512 34.6817 56.4512C34.6817 56.4512 32.9321 58.4072 32.5217 59.7464C32.1113 61.0856 32.4185 64.172 32.4185 64.172C32.4185 64.172 33.3449 61.292 34.4777 60.1568C35.6105 59.0216 36.8417 57.08 36.8417 57.08C37.4119 58.0094 37.9279 58.971 38.3873 59.96C39.2105 61.7096 39.7241 64.28 39.7241 64.28C39.7241 64.28 41.0633 61.4 40.9601 59.96C40.8569 58.52 39.3137 55.9448 39.3137 55.9448C39.3137 55.9448 40.3433 55.2248 41.8865 55.8416C43.4297 56.4584 46.1081 59.0336 46.1081 59.0336C46.1081 59.0336 45.4889 55.6352 44.4593 54.2984C43.4297 52.9616 39.0041 52.5464 39.0041 52.5464C39.0041 52.5464 41.4761 51.1064 43.0193 50.7968C44.5625 50.4872 46.6193 51.2096 46.6193 51.2096C46.6193 51.2096 44.2529 47.9144 42.4001 47.708C40.5473 47.5016 37.7681 50.3768 37.7681 50.3768L38.5937 46.2584C38.7977 45.2288 38.3873 42.6584 38.3873 42.6584C38.3873 42.6584 37.2545 43.2752 35.9153 45.2312C35.5233 45.7946 35.2485 46.4309 35.1071 47.1025C34.9657 47.7741 34.9606 48.4672 35.0921 49.1408Z" fill="#925CEC"/>
<path opacity="0.5" d="M35.0921 49.1408C35.0921 49.1408 34.2689 47.0816 32.8289 45.6416C31.3889 44.2016 25.5185 43.2728 25.5185 43.2728C26.4664 44.1871 27.3284 45.1865 28.0937 46.2584C29.4305 48.1112 33.8537 52.3328 33.8537 52.3328C33.8537 52.3328 31.6937 50.48 29.7353 50.2736C27.7769 50.0672 22.8377 51.0968 22.5353 51.0968C22.2329 51.0968 24.3881 51.92 25.9337 52.64C27.4793 53.36 33.4481 53.9792 33.4481 53.9792C33.4481 53.9792 30.8753 54.6992 29.1281 55.3184C27.3809 55.9376 25.7249 60.464 25.7249 60.464C25.7249 60.464 27.9905 58.4048 29.9465 57.8912C31.9025 57.3776 34.6817 56.4512 34.6817 56.4512C34.6817 56.4512 32.9321 58.4072 32.5217 59.7464C32.1113 61.0856 32.4185 64.172 32.4185 64.172C32.4185 64.172 33.3449 61.292 34.4777 60.1568C35.6105 59.0216 36.8417 57.08 36.8417 57.08C37.4119 58.0094 37.9279 58.971 38.3873 59.96C39.2105 61.7096 39.7241 64.28 39.7241 64.28C39.7241 64.28 41.0633 61.4 40.9601 59.96C40.8569 58.52 39.3137 55.9448 39.3137 55.9448C39.3137 55.9448 40.3433 55.2248 41.8865 55.8416C43.4297 56.4584 46.1081 59.0336 46.1081 59.0336C46.1081 59.0336 45.4889 55.6352 44.4593 54.2984C43.4297 52.9616 39.0041 52.5464 39.0041 52.5464C39.0041 52.5464 41.4761 51.1064 43.0193 50.7968C44.5625 50.4872 46.6193 51.2096 46.6193 51.2096C46.6193 51.2096 44.2529 47.9144 42.4001 47.708C40.5473 47.5016 37.7681 50.3768 37.7681 50.3768L38.5937 46.2584C38.7977 45.2288 38.3873 42.6584 38.3873 42.6584C38.3873 42.6584 37.2545 43.2752 35.9153 45.2312C35.5233 45.7946 35.2485 46.4309 35.1071 47.1025C34.9657 47.7741 34.9606 48.4672 35.0921 49.1408Z" fill="black"/>
<path d="M37.1201 46.0064C37.1921 45.7112 37.2713 45.416 37.3601 45.1256" stroke="#2E353A" stroke-width="0.5" stroke-linecap="round" stroke-linejoin="round"/>
<path d="M30.2441 46.0064C31.2041 46.7096 32.4041 47.6864 33.0329 48.524C34.1657 50.0672 36.4313 53.3624 36.4313 53.3624C36.3664 51.1491 36.5419 48.9354 36.9545 46.76" stroke="#2E353A" stroke-width="0.5" stroke-linecap="round" stroke-linejoin="round"/>
<path d="M28.8137 45.0224C28.8137 45.0224 29.1137 45.2144 29.5625 45.524" stroke="#2E353A" stroke-width="0.5" stroke-linecap="round" stroke-linejoin="round"/>
<path d="M36.4312 53.3624C36.4312 53.3624 40.3432 49.4504 41.9896 49.1408C43.636 48.8312 45.0784 50.0672 45.0784 50.0672" stroke="#2E353A" stroke-width="0.5" stroke-linecap="round" stroke-linejoin="round"/>
<path d="M29.4401 56.6336C28.4801 57.2384 28.4009 57.5936 28.4009 57.5936" stroke="#2E353A" stroke-width="0.5" stroke-linecap="round" stroke-linejoin="round"/>
<path d="M44.9751 56.9648C44.9751 56.9648 44.3583 55.4192 42.1959 54.6992C40.0335 53.9792 36.6399 53.876 36.6399 53.876C36.6399 53.876 31.8759 55.436 30.1335 56.2496" stroke="#2E353A" stroke-width="0.5" stroke-linecap="round" stroke-linejoin="round"/>
<path d="M34.5569 53.288C35.7089 53.624 36.6377 53.876 36.6377 53.876" stroke="#2E353A" stroke-width="0.5" stroke-linecap="round" stroke-linejoin="round"/>
<path d="M27.3064 51.4592C28.4248 51.5264 29.8648 51.68 30.6664 52.0232C31.3192 52.304 32.6056 52.7096 33.82 53.072" stroke="#2E353A" stroke-width="0.5" stroke-linecap="round" stroke-linejoin="round"/>
<path d="M25.7249 51.4064C25.7249 51.4064 26.1017 51.4064 26.6561 51.428" stroke="#2E353A" stroke-width="0.5" stroke-linecap="round" stroke-linejoin="round"/>
<path d="M36.4312 54.4928C36.4312 54.4928 33.5512 58.8128 33.3424 59.8472C33.2187 60.4574 33.1496 61.0775 33.136 61.7" stroke="#2E353A" stroke-width="0.5" stroke-linecap="round" stroke-linejoin="round"/>
<path d="M37.7129 55.8536C38.2673 56.5736 38.9321 57.5336 39.2105 58.3016C39.5345 59.2386 39.7755 60.2023 39.9305 61.1816" stroke="#2E353A" stroke-width="0.5" stroke-linecap="round" stroke-linejoin="round"/>
<path d="M36.8416 54.8024C36.8416 54.8024 37.0816 55.0568 37.3912 55.448" stroke="#2E353A" stroke-width="0.5" stroke-linecap="round" stroke-linejoin="round"/>
<path d="M33.7841 50.0288C33.7841 50.0288 33.2537 47.8688 33.5825 45.8648C33.9113 43.8608 38.1425 39.6776 38.1425 39.6776C37.9073 40.9731 37.7909 42.2873 37.7945 43.604C37.7945 45.8888 36.6545 51.8984 36.6545 51.8984C36.6545 51.8984 37.3289 49.1336 38.7977 47.8184C40.2665 46.5032 44.8817 44.4584 45.1313 44.2832C45.3809 44.108 44.1065 46.0328 43.2737 47.5208C42.4409 49.0088 37.9457 53 37.9457 53C37.9457 53 40.4561 52.0832 42.2369 51.56C44.0177 51.0368 47.9969 53.7584 47.9969 53.7584C47.9969 53.7584 44.9561 53.408 43.0673 54.1304C41.1785 54.8528 38.3801 55.7216 38.3801 55.7216C38.3801 55.7216 40.9433 56.2904 42.0569 57.1376C43.1705 57.9848 44.7257 60.68 44.7257 60.68C44.7257 60.68 42.2921 58.8776 40.7105 58.6184C39.1289 58.3592 36.9857 57.4928 36.9857 57.4928C37.067 58.58 37.2096 59.6617 37.4129 60.7328C37.7657 62.636 38.8529 65.0264 38.8529 65.0264C38.8529 65.0264 36.0857 63.4664 35.3273 62.2352C34.5689 61.004 34.3241 58.0136 34.3241 58.0136C34.3241 58.0136 33.0665 58.028 32.1641 59.4296C31.2617 60.8312 30.5969 64.484 30.5969 64.484C30.5969 64.484 29.1185 61.364 29.1737 59.684C29.2289 58.004 32.5841 55.0808 32.5841 55.0808C32.5841 55.0808 29.7377 55.352 28.3025 56C26.8673 56.648 25.6145 58.436 25.6145 58.436C25.6145 58.436 25.6145 54.38 27.0017 53.132C28.3889 51.884 32.3273 52.604 32.3273 52.604L29.2553 49.7408C28.4873 49.0208 27.3209 46.6928 27.3209 46.6928C27.3209 46.6928 28.6025 46.5344 30.8297 47.3432C31.4771 47.5699 32.0722 47.9244 32.5798 48.3858C33.0873 48.8472 33.4969 49.4059 33.7841 50.0288Z" fill="#925CEC"/>
<path d="M30.3089 48.6656C30.0689 48.4664 29.8433 48.2744 29.6033 48.0872" stroke="#2E353A" stroke-width="0.5" stroke-linecap="round" stroke-linejoin="round"/>
<path d="M35.8937 44.6552C35.5217 45.788 35.1065 47.2784 35.0969 48.3248C35.0777 50.2448 35.1593 54.236 35.1593 54.236C33.9206 52.4009 32.4857 50.7061 30.8801 49.1816" stroke="#2E353A" stroke-width="0.5" stroke-linecap="round" stroke-linejoin="round"/>
<path d="M36.484 43.0208C36.484 43.0208 36.3496 43.352 36.1672 43.8632" stroke="#2E353A" stroke-width="0.5" stroke-linecap="round" stroke-linejoin="round"/>
<path d="M35.1592 54.236C35.1592 54.236 29.6992 53.3408 28.1824 54.0512C26.6656 54.7616 26.2144 56.6 26.2144 56.6" stroke="#2E353A" stroke-width="0.5" stroke-linecap="round" stroke-linejoin="round"/>
<path d="M42.748 52.8152C43.8736 52.7528 44.1424 52.9808 44.1424 52.9808" stroke="#2E353A" stroke-width="0.5" stroke-linecap="round" stroke-linejoin="round"/>
<path d="M30.3208 62.1464C30.3208 62.1464 29.9224 60.5312 31.2568 58.6856C32.5912 56.84 35.2936 54.776 35.2936 54.776C35.2936 54.776 40.072 53.2616 41.9608 52.9088" stroke="#2E353A" stroke-width="0.5" stroke-linecap="round" stroke-linejoin="round"/>
<path d="M36.6401 53.084C35.9009 54.0272 35.2961 54.776 35.2961 54.776" stroke="#2E353A" stroke-width="0.5" stroke-linecap="round" stroke-linejoin="round"/>
<path d="M41.4616 47.3696C40.5928 48.0896 39.5128 49.0496 39.0616 49.7864C38.6944 50.396 37.8856 51.4664 37.1104 52.4768" stroke="#2E353A" stroke-width="0.5" stroke-linecap="round" stroke-linejoin="round"/>
<path d="M42.7145 46.4024C42.7145 46.4024 42.4097 46.6232 41.9705 46.964" stroke="#2E353A" stroke-width="0.5" stroke-linecap="round" stroke-linejoin="round"/>
<path d="M35.8193 55.16C35.8193 55.16 40.6841 56.9888 41.4497 57.7064C41.9063 58.1298 42.3239 58.5932 42.6977 59.0912" stroke="#2E353A" stroke-width="0.5" stroke-linecap="round" stroke-linejoin="round"/>
<path d="M35.5721 57.008C35.5385 57.9152 35.5553 59.0792 35.7833 59.8712C36.0662 60.8227 36.4333 61.7472 36.8801 62.6336" stroke="#2E353A" stroke-width="0.5" stroke-linecap="round" stroke-linejoin="round"/>
<path d="M35.6656 55.64C35.6656 55.64 35.6272 55.9808 35.5984 56.4848" stroke="#2E353A" stroke-width="0.5" stroke-linecap="round" stroke-linejoin="round"/>
<path d="M49.7993 61.0232H104.2C104.879 61.0232 105.531 61.293 106.011 61.7733C106.491 62.2535 106.761 62.9048 106.761 63.584V98.864C106.761 99.2318 106.688 99.596 106.548 99.9358C106.407 100.276 106.201 100.584 105.941 100.844C105.681 101.105 105.372 101.311 105.032 101.452C104.692 101.592 104.328 101.665 103.96 101.665H50.0393C49.6715 101.665 49.3073 101.592 48.9675 101.452C48.6277 101.311 48.3189 101.105 48.0589 100.844C47.7988 100.584 47.5925 100.276 47.4517 99.9358C47.311 99.596 47.2385 99.2318 47.2385 98.864V63.584C47.2385 62.9048 47.5083 62.2535 47.9886 61.7733C48.4688 61.293 49.1202 61.0232 49.7993 61.0232Z" fill="white" stroke="#2E353A" stroke-linecap="round" stroke-linejoin="round"/>
<path d="M69.7098 65.024H66.3594V67.2248H69.7098V65.024Z" fill="#2E353A"/>
<path d="M58.8545 78.6008H55.7441V81.6872H58.8545V78.6008Z" fill="#2E353A"/>
<path d="M72.5968 67.7528H69.4624V70.8392H72.5968V67.7528Z" fill="#2E353A"/>
<path d="M65.8289 65.024H62.4785V67.2248H65.8289V65.024Z" fill="#2E353A"/>
<path d="M76.2594 67.7528H73.125V70.8392H76.2594V67.7528Z" fill="#2E353A"/>
<path d="M73.5882 65.024H70.2378V67.2248H73.5882V65.024Z" fill="#2E353A"/>
<path d="M56.9752 74.984H51.0808V78.0704H56.9752V74.984Z" fill="#2E353A"/>
<path d="M65.2697 67.7528H62.1353V70.8392H65.2697V67.7528Z" fill="#2E353A"/>
<path d="M55.216 78.6008H51.0808V81.6872H55.216V78.6008Z" fill="#2E353A"/>
<path d="M77.4688 65.024H74.1184V67.2248H77.4688V65.024Z" fill="#2E353A"/>
<path d="M57.9425 67.7528H54.8081V70.8392H57.9425V67.7528Z" fill="#2E353A"/>
<path d="M58.0696 65.024H54.7192V67.2248H58.0696V65.024Z" fill="#2E353A"/>
<path d="M61.9505 65.024H58.6001V67.2248H61.9505V65.024Z" fill="#2E353A"/>
<path d="M61.6049 67.7528H58.4705V70.8392H61.6049V67.7528Z" fill="#2E353A"/>
<path d="M68.932 67.7528H65.7976V70.8392H68.932V67.7528Z" fill="#2E353A"/>
<path d="M92.9896 65.024H89.6392V67.2248H92.9896V65.024Z" fill="#2E353A"/>
<path d="M96.868 65.024H93.5176V67.2248H96.868V65.024Z" fill="#2E353A"/>
<path d="M94.5785 67.7528H91.4441V70.8392H94.5785V67.7528Z" fill="#2E353A"/>
<path d="M98.2433 67.7528H95.1089V70.8392H98.2433V67.7528Z" fill="#2E353A"/>
<path d="M104.039 78.6008H99.4241V81.6872H104.039V78.6008Z" fill="#2E353A"/>
<path d="M100.749 65.024H97.3984V67.2248H100.749V65.024Z" fill="#2E353A"/>
<path d="M54.28 67.7528H51.0808V70.8392H54.28V67.7528Z" fill="#2E353A"/>
<path d="M81.3497 65.024H77.9993V67.2248H81.3497V65.024Z" fill="#2E353A"/>
<path d="M85.2281 65.024H81.8777V67.2248H85.2281V65.024Z" fill="#2E353A"/>
<path d="M83.589 67.7528H80.4546V70.8392H83.589V67.7528Z" fill="#2E353A"/>
<path d="M90.9161 67.7528H87.7817V70.8392H90.9161V67.7528Z" fill="#2E353A"/>
<path d="M79.9242 67.7528H76.7898V70.8392H79.9242V67.7528Z" fill="#2E353A"/>
<path d="M87.2513 67.7528H84.1169V70.8392H87.2513V67.7528Z" fill="#2E353A"/>
<path d="M89.1089 65.024H85.7585V67.2248H89.1089V65.024Z" fill="#2E353A"/>
<path d="M84.3353 78.6008H81.2249V81.6872H84.3353V78.6008Z" fill="#2E353A"/>
<path d="M100.655 74.984H97.5449V78.0704H100.655V74.984Z" fill="#2E353A"/>
<path d="M97.0145 74.984H93.9041V78.0704H97.0145V74.984Z" fill="#2E353A"/>
<path d="M98.8936 78.6008H95.7832V81.6872H98.8936V78.6008Z" fill="#2E353A"/>
<path d="M95.2552 78.6008H92.1448V81.6872H95.2552V78.6008Z" fill="#2E353A"/>
<path d="M87.9737 78.6008H84.8633V81.6872H87.9737V78.6008Z" fill="#2E353A"/>
<path d="M91.6145 78.6008H88.5042V81.6872H91.6145V78.6008Z" fill="#2E353A"/>
<path d="M93.3736 74.984H90.2632V78.0704H93.3736V74.984Z" fill="#2E353A"/>
<path d="M89.7354 74.984H86.625V78.0704H89.7354V74.984Z" fill="#2E353A"/>
<path d="M104.042 65.024H101.279V67.2248H104.042V65.024Z" fill="#2E353A"/>
<path d="M54.1912 65.024H51.0808V67.2248H54.1912V65.024Z" fill="#2E353A"/>
<path d="M104.042 82.2152H51.0808V85.424H104.042V82.2152Z" fill="#2E353A"/>
<path d="M104.039 67.7528H98.7712V70.8392H104.039V67.7528Z" fill="#2E353A"/>
<path d="M104.039 74.984H101.183V78.0704H104.039V74.984Z" fill="#2E353A"/>
<path d="M100.305 74.432H99.7744V71.3696H96.664V74.432H96.136V71.3696H93.0256V74.432H92.4952V71.3696H89.3848V74.432H88.8544V71.3696H85.744V74.432H85.216V71.3696H82.1056V74.432H81.5752V71.3696H78.4648V74.432H77.9344V71.3696H74.824V74.432H74.296V71.3696H71.1856V74.432H70.6552V71.3696H67.5448V74.432H67.0144V71.3696H63.904V74.432H63.376V71.3696H60.2656V74.432H59.7352V71.3696H56.6248V74.432H56.0944V71.3696H51.0808V74.456H104.039V71.3696H100.305V74.432Z" fill="#2E353A"/>
<path d="M75.1744 74.984H72.064V78.0704H75.1744V74.984Z" fill="#2E353A"/>
<path d="M86.0945 74.984H82.9841V78.0704H86.0945V74.984Z" fill="#2E353A"/>
<path d="M67.8953 74.984H64.7849V78.0704H67.8953V74.984Z" fill="#2E353A"/>
<path d="M69.7745 78.6008H66.6641V81.6872H69.7745V78.6008Z" fill="#2E353A"/>
<path d="M71.5337 74.984H68.4233V78.0704H71.5337V74.984Z" fill="#2E353A"/>
<path d="M64.2544 74.984H61.144V78.0704H64.2544V74.984Z" fill="#2E353A"/>
<path d="M62.4952 78.6008H59.3848V81.6872H62.4952V78.6008Z" fill="#2E353A"/>
<path d="M66.1336 78.6008H63.0232V81.6872H66.1336V78.6008Z" fill="#2E353A"/>
<path d="M78.8152 74.984H75.7048V78.0704H78.8152V74.984Z" fill="#2E353A"/>
<path d="M80.6944 78.6008H77.584V81.6872H80.6944V78.6008Z" fill="#2E353A"/>
<path d="M82.4537 74.984H79.3433V78.0704H82.4537V74.984Z" fill="#2E353A"/>
<path d="M73.4153 78.6008H70.3049V81.6872H73.4153V78.6008Z" fill="#2E353A"/>
<path d="M77.0538 78.6008H73.9434V81.6872H77.0538V78.6008Z" fill="#2E353A"/>
<path d="M60.6136 74.984H57.5032V78.0704H60.6136V74.984Z" fill="#2E353A"/>
<path d="M110.159 38.9432H43.5209C43.1941 38.9435 42.8717 39.0189 42.5787 39.1636C42.2857 39.3083 42.0299 39.5185 41.8311 39.7778C41.6323 40.0372 41.4958 40.3388 41.4322 40.6593C41.3685 40.9799 41.3794 41.3108 41.4641 41.6264L46.3361 59.7656C46.4575 60.2184 46.7248 60.6185 47.0967 60.904C47.4685 61.1895 47.9241 61.3444 48.3929 61.3448H55.1945V62.6H98.8001V61.352H105.28C105.749 61.3516 106.204 61.1967 106.576 60.9112C106.948 60.6257 107.215 60.2256 107.337 59.7728L112.209 41.6336C112.295 41.3181 112.307 40.987 112.244 40.6661C112.181 40.3452 112.046 40.043 111.848 39.7829C111.649 39.5228 111.394 39.3118 111.101 39.1662C110.809 39.0206 110.486 38.9443 110.159 38.9432Z" fill="#2E353A" stroke="#2E353A" stroke-linecap="round" stroke-linejoin="round"/>
<path d="M102.623 59.744H51.0568L45.8992 41.1848H107.778L102.623 59.744Z" fill="#925CEC" stroke="#2E353A" stroke-linecap="round" stroke-linejoin="round"/>
<path d="M54.4792 51.5984V51.8384H53.5696V51.5984H54.4792Z" fill="#2E353A"/>
<path d="M55.6122 51.5984V51.8384H54.7002V51.5984H55.6122Z" fill="#2E353A"/>
<path d="M56.7449 51.5984V51.8384H55.8401V51.5984H56.7449Z" fill="#2E353A"/>
<path d="M57.8752 51.5984V51.8384H56.9656V51.5984H57.8752Z" fill="#2E353A"/>
<path d="M59.0082 51.5984V51.8384H58.0962V51.5984H59.0082Z" fill="#2E353A"/>
<path d="M60.141 51.5984V51.8384H59.229V51.5984H60.141Z" fill="#2E353A"/>
<path d="M61.2712 51.5984V51.8384H60.3616V51.5984H61.2712Z" fill="#2E353A"/>
<path d="M62.3921 52.8632L61.3889 50.1896H61.6289L62.6321 52.8632H62.3921Z" fill="#2E353A"/>
<path d="M53.5624 47.7056V47.9456H52.6528V47.7056H53.5624Z" fill="#2E353A"/>
<path d="M54.6952 47.7056V47.9456H53.7856V47.7056H54.6952Z" fill="#2E353A"/>
<path d="M55.84 47.7056V47.9456H54.928V47.7056H55.84Z" fill="#2E353A"/>
<path d="M56.9608 47.7056V47.9456H56.0488V47.7056H56.9608Z" fill="#2E353A"/>
<path d="M58.0912 47.7056V47.9456H57.1816V47.7056H58.0912Z" fill="#2E353A"/>
<path d="M60.0065 47.7056V47.9456H59.0945V47.7056H60.0065Z" fill="#2E353A"/>
<path d="M61.1369 47.7056V47.9456H60.2273V47.7056H61.1369Z" fill="#2E353A"/>
<path d="M62.2697 47.7056V47.9456H61.3601V47.7056H62.2697Z" fill="#2E353A"/>
<path d="M63.4025 47.7056V47.9456H62.4905V47.7056H63.4025Z" fill="#2E353A"/>
<path d="M64.5329 47.7056V47.9456H63.6233V47.7056H64.5329Z" fill="#2E353A"/>
<path d="M65.6657 47.7056V47.9456H64.7561V47.7056H65.6657Z" fill="#2E353A"/>
<path d="M66.7985 47.7056V47.9456H65.8865V47.7056H66.7985Z" fill="#2E353A"/>
<path d="M68.7114 47.7056V47.9456H67.8018V47.7056H68.7114Z" fill="#2E353A"/>
<path d="M69.8441 47.7056V47.9456H68.9321V47.7056H69.8441Z" fill="#2E353A"/>
<path d="M70.9769 47.7056V47.9456H70.0649V47.7056H70.9769Z" fill="#2E353A"/>
<path d="M72.8801 47.7056V47.9456H71.9705V47.7056H72.8801Z" fill="#2E353A"/>
<path d="M74.0225 47.7056V47.9456H73.1201V47.7056H74.0225Z" fill="#2E353A"/>
<path d="M75.1552 47.7056V47.9456H74.2432V47.7056H75.1552Z" fill="#2E353A"/>
<path d="M79.4128 47.7056V47.9456H78.5032V47.7056H79.4128Z" fill="#2E353A"/>
<path d="M80.5458 47.7056V47.9456H79.6338V47.7056H80.5458Z" fill="#2E353A"/>
<path d="M81.6786 47.7056V47.9456H80.7666V47.7056H81.6786Z" fill="#2E353A"/>
<path d="M82.8088 47.7056V47.9456H81.8992V47.7056H82.8088Z" fill="#2E353A"/>
<path d="M83.9418 47.7056V47.9456H83.0298V47.7056H83.9418Z" fill="#2E353A"/>
<path d="M85.8544 47.7056V47.9456H84.9448V47.7056H85.8544Z" fill="#2E353A"/>
<path d="M86.9873 47.7056V47.9456H86.0801V47.7056H86.9873Z" fill="#2E353A"/>
<path d="M88.12 47.7056V47.9456H87.208V47.7056H88.12Z" fill="#2E353A"/>
<path d="M90.0329 47.7056V47.9456H89.1233V47.7056H90.0329Z" fill="#2E353A"/>
<path d="M91.9481 47.7056V47.9456H91.0361V47.7056H91.9481Z" fill="#2E353A"/>
<path d="M107.126 87.1496L104.558 97.0568L106.986 97.7696L107.126 87.1496Z" fill="white" stroke="#2E353A" stroke-linecap="round" stroke-linejoin="round"/>
<path d="M108.278 76.6784C107.988 76.2332 107.882 75.6929 107.982 75.1712C108.114 74.1944 109.293 73.9712 109.293 73.9712C109.293 73.9712 109.55 73.7768 110.493 74.1344C111.436 74.492 118.73 75.4808 123.39 76.112C128.051 76.7432 129.561 76.3352 129.496 77.936C129.431 79.5368 125.342 93.9032 125.279 94.3544C125.217 94.8056 108.278 76.6784 108.278 76.6784Z" fill="white" stroke="#2E353A" stroke-miterlimit="10"/>
<path d="M127.882 79.3367L108.276 76.6788L105.107 100.05L124.714 102.708L127.882 79.3367Z" fill="white" stroke="#2E353A" stroke-linecap="round" stroke-linejoin="round"/>
<path d="M124.238 83.9984L125.378 84.1544" stroke="#2E353A" stroke-width="0.5" stroke-linecap="round" stroke-linejoin="round"/>
<path d="M117.098 83.0312L123.335 83.8784" stroke="#2E353A" stroke-width="0.5" stroke-linecap="round" stroke-linejoin="round"/>
<path d="M109.538 82.0064L116.195 82.9088" stroke="#2E353A" stroke-width="0.5" stroke-linecap="round" stroke-linejoin="round"/>
<path d="M122.452 85.8728L125.097 86.2328" stroke="#2E353A" stroke-width="0.5" stroke-linecap="round" stroke-linejoin="round"/>
<path d="M109.257 84.0848L119.747 85.5056" stroke="#2E353A" stroke-width="0.5" stroke-linecap="round" stroke-linejoin="round"/>
<path d="M114.58 86.9216L124.816 88.3088" stroke="#2E353A" stroke-width="0.5" stroke-linecap="round" stroke-linejoin="round"/>
<path d="M108.974 86.1608L113.526 86.78" stroke="#2E353A" stroke-width="0.5" stroke-linecap="round" stroke-linejoin="round"/>
<path d="M117.981 89.4992L124.533 90.3872" stroke="#2E353A" stroke-width="0.5" stroke-linecap="round" stroke-linejoin="round"/>
<path d="M112.42 88.7432L117.23 89.396" stroke="#2E353A" stroke-width="0.5" stroke-linecap="round" stroke-linejoin="round"/>
<path d="M108.693 88.2392L111.592 88.6328" stroke="#2E353A" stroke-width="0.5" stroke-linecap="round" stroke-linejoin="round"/>
<path d="M121.907 92.1464L124.252 92.4632" stroke="#2E353A" stroke-width="0.5" stroke-linecap="round" stroke-linejoin="round"/>
<path d="M108.412 90.3176L120.331 91.9328" stroke="#2E353A" stroke-width="0.5" stroke-linecap="round" stroke-linejoin="round"/>
<path d="M117.343 93.6416L123.971 94.5416" stroke="#2E353A" stroke-width="0.5" stroke-linecap="round" stroke-linejoin="round"/>
<path d="M108.129 92.3936L116.215 93.4904" stroke="#2E353A" stroke-width="0.5" stroke-linecap="round" stroke-linejoin="round"/>
<path d="M119.39 96.0368L123.688 96.6176" stroke="#2E353A" stroke-width="0.5" stroke-linecap="round" stroke-linejoin="round"/>
<path d="M110.673 94.8536L118.338 95.8928" stroke="#2E353A" stroke-width="0.5" stroke-linecap="round" stroke-linejoin="round"/>
<path d="M107.848 94.472L109.77 94.7312" stroke="#2E353A" stroke-width="0.5" stroke-linecap="round" stroke-linejoin="round"/>
<path d="M127.883 79.3376C127.883 79.3376 128.219 76.0784 129.419 77.3888" stroke="#2E353A" stroke-linecap="round" stroke-linejoin="round"/>
<path d="M121.235 104.444L121.214 106.515L120.006 104.811L115.161 88.5128L116.39 88.1456L121.235 104.444Z" fill="white" stroke="#2E353A" stroke-linecap="round" stroke-linejoin="round"/>
<path d="M115.909 88.8421L115.238 89.0376L119.999 105.361L120.67 105.166L115.909 88.8421Z" fill="#925CEC" stroke="#2E353A" stroke-width="0.5" stroke-linecap="round" stroke-linejoin="round"/>
<path d="M121.235 104.449L120.009 104.814L121.214 106.515L121.235 104.449Z" stroke="#2E353A" stroke-linecap="round" stroke-linejoin="round"/>
<path d="M120.611 105.663L121.214 106.515L121.226 105.481L120.611 105.663Z" fill="#2E353A" stroke="#2E353A" stroke-linecap="round" stroke-linejoin="round"/>
<path d="M115.233 86.504C115.07 86.5529 114.934 86.6641 114.853 86.8134C114.772 86.9627 114.753 87.1379 114.801 87.3008L115.161 88.5128L116.39 88.148L116.03 86.936C115.981 86.7734 115.87 86.6367 115.72 86.5558C115.571 86.4749 115.396 86.4563 115.233 86.504Z" fill="white" stroke="#2E353A" stroke-linecap="round" stroke-linejoin="round"/>
<path d="M115.233 86.504C115.07 86.5529 114.934 86.6641 114.853 86.8134C114.772 86.9627 114.753 87.1379 114.801 87.3008L114.974 87.8792L116.2 87.5144L116.03 86.936C115.981 86.7734 115.87 86.6367 115.72 86.5558C115.571 86.4749 115.396 86.4563 115.233 86.504Z" fill="#2E353A" stroke="#2E353A" stroke-linecap="round" stroke-linejoin="round"/>
<path d="M54.7958 76.8776C54.6422 77.0936 54.491 77.3192 54.3398 77.5568" stroke="white" stroke-linecap="round" stroke-linejoin="round"/>
<path d="M57.3062 73.988C56.6375 74.6079 56.0188 75.2795 55.4558 75.9968" stroke="white" stroke-linecap="round" stroke-linejoin="round"/>
<path d="M54.5824 75.2624C53.9266 76.1821 53.3325 77.1442 52.804 78.1424" stroke="white" stroke-linecap="round" stroke-linejoin="round"/>
<path d="M71.5095 80.54C71.3583 80.756 71.2047 80.9816 71.0535 81.2168" stroke="white" stroke-linecap="round" stroke-linejoin="round"/>
<path d="M74.0199 77.6504C73.3524 78.2707 72.7345 78.9424 72.1719 79.6592" stroke="white" stroke-linecap="round" stroke-linejoin="round"/>
<path d="M71.2984 78.92C70.6431 79.845 70.049 80.8118 69.52 81.8144" stroke="white" stroke-linecap="round" stroke-linejoin="round"/>
<path d="M95.4664 74.6C95.248 74.4512 95.0176 74.3024 94.78 74.1536" stroke="white" stroke-linecap="round" stroke-linejoin="round"/>
<path d="M98.3943 77.0672C97.7631 76.4098 97.0819 75.8024 96.3567 75.2504" stroke="white" stroke-linecap="round" stroke-linejoin="round"/>
<path d="M97.079 74.36C96.1451 73.7186 95.1702 73.139 94.1606 72.6248" stroke="white" stroke-linecap="round" stroke-linejoin="round"/>
<path d="M70.78 89.48C70.6552 90.3824 70.468 91.64 70.2808 92.3864" stroke="#2E353A" stroke-linecap="round" stroke-linejoin="round"/>
<path d="M70.9192 88.3832C70.9192 88.3832 70.9 88.5536 70.864 88.8296" stroke="#2E353A" stroke-linecap="round" stroke-linejoin="round"/>
<path d="M71.5599 90.944C71.2978 91.8182 70.9771 92.6738 70.5999 93.5048" stroke="#2E353A" stroke-linecap="round" stroke-linejoin="round"/>
<path d="M83.5598 92.2232C83.5598 92.2232 83.7206 94.304 84.839 95.4248" stroke="#2E353A" stroke-linecap="round" stroke-linejoin="round"/>
<path d="M83.3992 94.304C83.3992 94.304 83.8792 95.744 84.8392 96.3848" stroke="#2E353A" stroke-linecap="round" stroke-linejoin="round"/>
<g style="mix-blend-mode:multiply">
<path d="M50.7998 105.426C50.7998 105.426 51.8654 104.569 51.8654 97.2032C51.8654 89.8376 53.0918 84.4568 54.6038 82.0976C56.1158 79.7384 57.5294 78.7928 58.1918 78.7928C58.8542 78.7928 58.379 79.6424 57.4358 80.8688C56.4926 82.0952 55.643 82.7576 55.2638 84.2696C54.8846 85.7816 54.887 87.668 55.3598 87.4784C55.8326 87.2888 56.5862 83.5136 57.2462 82.0976C57.9062 80.6816 59.5142 78.8864 60.4574 78.0368C61.4006 77.1872 63.479 74.6384 64.4222 75.2984C65.3654 75.9584 64.8014 76.904 64.235 77.2808C63.6686 77.6576 61.4006 79.9208 60.3638 81.3416C59.327 82.7624 58.6646 86.3456 59.231 86.4392C59.7974 86.5328 61.4966 81.248 62.4398 80.1152C63.383 78.9824 67.1606 75.8648 68.0102 75.7712C68.8598 75.6776 68.9558 76.9976 68.1998 77.66C67.4438 78.3224 64.895 81.152 64.0454 82.8512C63.1958 84.5504 62.8166 87.668 63.5654 86.912C64.3142 86.156 65.5478 83.0408 66.587 82.0016C67.6262 80.9624 70.7414 77.66 71.4974 78.0368C72.2534 78.4136 72.0638 79.3592 71.4038 80.0192C70.7438 80.6792 68.1926 84.2696 67.5326 86.156C66.8726 88.0424 66.1142 93.332 66.4934 92.5784C66.8726 91.8248 68.099 87.9512 68.759 86.3384C69.419 84.7256 70.7414 83.9792 70.931 84.7328C71.1206 85.4864 70.7414 85.8656 70.2686 87.5672C69.7958 89.2688 69.7886 93.8072 68.3822 96.3464C66.9758 98.8856 61.331 104.319 60.5774 106.206C60.0315 107.505 59.3797 108.757 58.6286 109.95" fill="#925CEC"/>
</g>
<g style="mix-blend-mode:multiply">
<path d="M103.252 106.064C103.252 106.064 102.16 104.569 102.16 97.2032C102.16 89.8376 100.931 84.4568 99.4216 82.0976C97.912 79.7384 96.4936 78.7928 95.8336 78.7928C95.1736 78.7928 95.644 79.6424 96.5896 80.8688C97.5352 82.0952 98.3824 82.7576 98.7496 84.2696C99.1168 85.7816 99.1288 87.668 98.656 87.4784C98.1832 87.2888 97.4296 83.5136 96.7672 82.0976C96.1048 80.6816 94.5016 78.8864 93.5584 78.0368C92.6152 77.1872 90.5368 74.6384 89.5912 75.2984C88.6456 75.9584 89.2144 76.904 89.7808 77.2808C90.3472 77.6576 92.6128 79.9208 93.652 81.3416C94.6912 82.7624 95.3512 86.3456 94.7848 86.4392C94.2184 86.5328 92.5264 81.248 91.5832 80.12C90.64 78.992 86.86 75.8696 86.0104 75.776C85.1608 75.6824 85.0672 77.0024 85.8232 77.6648C86.5792 78.3272 89.128 81.1568 89.9776 82.856C90.8272 84.5552 91.204 87.6728 90.4576 86.9168C89.7112 86.1608 88.4752 83.0456 87.4384 82.0064C86.4016 80.9672 83.284 77.6648 82.528 78.0416C81.772 78.4184 81.9616 79.364 82.6216 80.024C83.2816 80.684 85.8328 84.2744 86.4928 86.1608C87.1528 88.0472 87.9088 93.3368 87.532 92.5832C87.1552 91.8296 85.9264 87.956 85.2664 86.3432C84.6064 84.7304 83.284 83.984 83.0944 84.7376C82.9048 85.4912 83.284 85.8704 83.7544 87.572C84.2248 89.2736 84.2344 93.812 85.6432 96.3512C87.052 98.8904 92.536 103.846 93.292 105.735C94.048 107.624 95.416 110.6 95.416 110.6" fill="#925CEC"/>
</g>
<path d="M50.4399 107.24C50.4399 107.24 51.8559 102.615 51.8559 95.24C51.8559 87.8648 53.0823 82.4936 54.5943 80.1344C56.1063 77.7752 57.5199 76.8296 58.1823 76.8296C58.8447 76.8296 58.3695 77.6792 57.4263 78.9056C56.4831 80.132 55.6335 80.7944 55.2543 82.304C54.8751 83.8136 54.8775 85.7048 55.3503 85.5152C55.8231 85.3256 56.5767 81.5504 57.2367 80.1344C57.8967 78.7184 59.5047 76.9232 60.4479 76.0736C61.3911 75.224 63.4695 72.6752 64.4127 73.3352C65.3559 73.9952 64.7919 74.9408 64.2255 75.3176C63.6591 75.6944 61.3911 77.9576 60.3543 79.3784C59.3175 80.7992 58.6551 84.3824 59.2215 84.476C59.7879 84.5696 61.4871 79.2848 62.4303 78.1496C63.3735 77.0144 67.1511 73.9016 68.0007 73.808C68.8503 73.7144 68.9463 75.0344 68.1903 75.6968C67.4343 76.3592 64.8855 79.1888 64.0359 80.888C63.1863 82.5872 62.8071 85.7048 63.5559 84.9488C64.3047 84.1928 65.5383 81.0776 66.5775 80.0384C67.6167 78.9992 70.7319 75.6968 71.4879 76.0736C72.2439 76.4504 72.0543 77.396 71.3943 78.056C70.7343 78.716 68.1831 82.304 67.5231 84.1928C66.8631 86.0816 66.1047 91.3688 66.4839 90.6128C66.8631 89.8568 68.0895 85.988 68.7495 84.3728C69.4095 82.7576 70.7319 82.0112 70.9215 82.7672C71.1111 83.5232 70.7319 83.9 70.2591 85.5992C69.7863 87.2984 69.7791 91.8392 68.3727 94.3808C66.9663 96.9224 61.4799 103.822 60.7239 105.711C59.9679 107.6 58.2687 111.754 58.2687 111.754" fill="white"/>
<path d="M50.4399 107.24C50.4399 107.24 51.8559 102.615 51.8559 95.24C51.8559 87.8648 53.0823 82.4936 54.5943 80.1344C56.1063 77.7752 57.5199 76.8296 58.1823 76.8296C58.8447 76.8296 58.3695 77.6792 57.4263 78.9056C56.4831 80.132 55.6335 80.7944 55.2543 82.304C54.8751 83.8136 54.8775 85.7048 55.3503 85.5152C55.8231 85.3256 56.5767 81.5504 57.2367 80.1344C57.8967 78.7184 59.5047 76.9232 60.4479 76.0736C61.3911 75.224 63.4695 72.6752 64.4127 73.3352C65.3559 73.9952 64.7919 74.9408 64.2255 75.3176C63.6591 75.6944 61.3911 77.9576 60.3543 79.3784C59.3175 80.7992 58.6551 84.3824 59.2215 84.476C59.7879 84.5696 61.4871 79.2848 62.4303 78.1496C63.3735 77.0144 67.1511 73.9016 68.0007 73.808C68.8503 73.7144 68.9463 75.0344 68.1903 75.6968C67.4343 76.3592 64.8855 79.1888 64.0359 80.888C63.1863 82.5872 62.8071 85.7048 63.5559 84.9488C64.3047 84.1928 65.5383 81.0776 66.5775 80.0384C67.6167 78.9992 70.7319 75.6968 71.4879 76.0736C72.2439 76.4504 72.0543 77.396 71.3943 78.056C70.7343 78.716 68.1831 82.304 67.5231 84.1928C66.8631 86.0816 66.1047 91.3688 66.4839 90.6128C66.8631 89.8568 68.0895 85.988 68.7495 84.3728C69.4095 82.7576 70.7319 82.0112 70.9215 82.7672C71.1111 83.5232 70.7319 83.9 70.2591 85.5992C69.7863 87.2984 69.7791 91.8392 68.3727 94.3808C66.9663 96.9224 61.4799 103.822 60.7239 105.711C59.9679 107.6 58.2687 111.754 58.2687 111.754" stroke="#2E353A" stroke-linecap="round" stroke-linejoin="round"/>
<path d="M103.573 107.24C103.573 107.24 102.157 102.615 102.157 95.24C102.157 87.8648 100.929 82.4936 99.4191 80.1344C97.9095 77.7752 96.4911 76.8296 95.8311 76.8296C95.1711 76.8296 95.6415 77.6792 96.5871 78.9056C97.5327 80.132 98.3799 80.7944 98.7471 82.304C99.1143 83.8136 99.1263 85.7048 98.6535 85.5152C98.1807 85.3256 97.4271 81.5504 96.7647 80.1344C96.1023 78.7184 94.4991 76.9232 93.5559 76.0736C92.6127 75.224 90.5343 72.6752 89.5887 73.3352C88.6431 73.9952 89.2119 74.9408 89.7783 75.3176C90.3447 75.6944 92.6103 77.9576 93.6495 79.3784C94.6887 80.7992 95.3487 84.3824 94.7823 84.476C94.2159 84.5696 92.5167 79.2848 91.5735 78.1496C90.6303 77.0144 86.8503 73.9016 86.0007 73.808C85.1511 73.7144 85.0575 75.0344 85.8135 75.6968C86.5695 76.3592 89.1183 79.1888 89.9679 80.888C90.8175 82.5872 91.1943 85.7048 90.4479 84.9488C89.7015 84.1928 88.4655 81.0776 87.4287 80.0384C86.3919 78.9992 83.2743 75.6968 82.5183 76.0736C81.7623 76.4504 81.9519 77.396 82.6119 78.056C83.2719 78.716 85.8231 82.304 86.4831 84.1928C87.1431 86.0816 87.8991 91.3688 87.5223 90.6128C87.1455 89.8568 85.9167 85.988 85.2567 84.3728C84.5967 82.7576 83.2743 82.0112 83.0847 82.7672C82.8951 83.5232 83.2743 83.9 83.7447 85.5992C84.2151 87.2984 84.2247 91.8392 85.6335 94.3808C87.0423 96.9224 92.5263 103.822 93.2823 105.711C94.0383 107.6 95.7375 111.754 95.7375 111.754" fill="white"/>
<path d="M103.573 107.24C103.573 107.24 102.157 102.615 102.157 95.24C102.157 87.8648 100.929 82.4936 99.4191 80.1344C97.9095 77.7752 96.4911 76.8296 95.8311 76.8296C95.1711 76.8296 95.6415 77.6792 96.5871 78.9056C97.5327 80.132 98.3799 80.7944 98.7471 82.304C99.1143 83.8136 99.1263 85.7048 98.6535 85.5152C98.1807 85.3256 97.4271 81.5504 96.7647 80.1344C96.1023 78.7184 94.4991 76.9232 93.5559 76.0736C92.6127 75.224 90.5343 72.6752 89.5887 73.3352C88.6431 73.9952 89.2119 74.9408 89.7783 75.3176C90.3447 75.6944 92.6103 77.9576 93.6495 79.3784C94.6887 80.7992 95.3487 84.3824 94.7823 84.476C94.2159 84.5696 92.5167 79.2848 91.5735 78.1496C90.6303 77.0144 86.8503 73.9016 86.0007 73.808C85.1511 73.7144 85.0575 75.0344 85.8135 75.6968C86.5695 76.3592 89.1183 79.1888 89.9679 80.888C90.8175 82.5872 91.1943 85.7048 90.4479 84.9488C89.7015 84.1928 88.4655 81.0776 87.4287 80.0384C86.3919 78.9992 83.2743 75.6968 82.5183 76.0736C81.7623 76.4504 81.9519 77.396 82.6119 78.056C83.2719 78.716 85.8231 82.304 86.4831 84.1928C87.1431 86.0816 87.8991 91.3688 87.5223 90.6128C87.1455 89.8568 85.9167 85.988 85.2567 84.3728C84.5967 82.7576 83.2743 82.0112 83.0847 82.7672C82.8951 83.5232 83.2743 83.9 83.7447 85.5992C84.2151 87.2984 84.2247 91.8392 85.6335 94.3808C87.0423 96.9224 92.5263 103.822 93.2823 105.711C94.0383 107.6 95.7375 111.754 95.7375 111.754" stroke="#2E353A" stroke-linecap="round" stroke-linejoin="round"/>
<path d="M44.4639 121.64H58.8639C59.0511 120.92 59.2863 120.114 59.5839 119.24C60.7167 115.846 64.3839 111.603 64.3839 111.603C61.7555 109.288 58.6671 107.556 55.3215 106.52C49.8015 104.821 45.7599 105.32 45.7599 105.32C46.5039 108.388 46.5857 111.578 45.9999 114.68C45.2799 118.174 44.7999 120.385 44.4639 121.64Z" fill="#2E353A" stroke="#2E353A" stroke-linecap="round" stroke-linejoin="round"/>
<path d="M95.056 121.64H110.018C109.538 120.397 108.501 117.697 107.464 114.997C106.048 111.32 106.614 106.371 106.048 106.371C105.482 106.371 99.1192 105.946 96.0088 106.935C92.8984 107.924 89.3608 110.754 89.3608 110.754C90.9623 112.614 92.3389 114.657 93.4624 116.84C94.1846 118.37 94.7197 119.982 95.056 121.64Z" fill="#2E353A" stroke="#2E353A" stroke-linecap="round" stroke-linejoin="round"/>
<path d="M53.4591 108.248C53.3559 107.84 51.8199 108.454 51.8199 108.454C51.8199 108.454 52.3335 106.51 51.5151 106.51C50.6967 106.51 50.5935 107.95 50.5935 107.95C50.5935 107.95 49.0575 107.338 49.0575 108.258C49.0575 109.177 50.0799 109.16 50.0799 109.16C50.0799 109.16 48.8511 110.696 49.7727 111.001C50.6943 111.306 51.3063 110.182 51.3063 110.182C51.3063 110.182 51.9207 111.207 52.7463 110.797C53.5719 110.386 52.9503 109.467 52.9503 109.467C52.9503 109.467 53.5599 108.658 53.4591 108.248ZM51.4119 109.784C51.3347 109.767 51.2638 109.728 51.2076 109.672C51.1514 109.617 51.112 109.546 51.0941 109.469C51.0761 109.392 51.0803 109.312 51.1062 109.237C51.132 109.162 51.1785 109.096 51.2402 109.047C51.3019 108.997 51.3763 108.966 51.455 108.957C51.5336 108.948 51.6132 108.961 51.6845 108.995C51.7559 109.029 51.8162 109.083 51.8584 109.15C51.9006 109.217 51.923 109.294 51.9231 109.374C51.9058 109.494 51.8434 109.603 51.7485 109.68C51.6536 109.756 51.5333 109.793 51.4119 109.784ZM55.7103 119.72C55.6071 119.312 54.0711 119.926 54.0711 119.926C54.0711 119.926 54.5847 117.982 53.7639 117.982C52.9431 117.982 52.8447 119.422 52.8447 119.422C52.8447 119.422 51.3087 118.808 51.3087 119.727C51.3087 120.646 52.3335 120.649 52.3335 120.649C52.3335 120.649 51.1047 122.185 52.0263 122.492C52.9479 122.799 53.5599 121.671 53.5599 121.671C53.5599 121.671 54.1743 122.696 54.9999 122.286C55.8255 121.875 55.2039 120.956 55.2039 120.956C55.2039 120.956 55.8111 120.118 55.7103 119.72ZM53.6631 121.256C53.5859 121.239 53.515 121.2 53.4588 121.144C53.4026 121.089 53.3632 121.018 53.3453 120.941C53.3273 120.864 53.3315 120.784 53.3574 120.709C53.3832 120.634 53.4297 120.568 53.4914 120.519C53.5531 120.469 53.6275 120.438 53.7062 120.429C53.7848 120.42 53.8644 120.433 53.9357 120.467C54.0071 120.501 54.0674 120.555 54.1096 120.622C54.1518 120.689 54.1742 120.766 54.1743 120.846C54.157 120.965 54.0941 121.073 53.9988 121.148C53.9036 121.222 53.7833 121.256 53.6631 121.244V121.256ZM46.7031 121.256C46.5999 120.846 45.0663 121.46 45.0663 121.46C45.0663 121.46 45.5775 119.516 44.7591 119.516C43.9407 119.516 43.8375 120.956 43.8375 120.956C43.8375 120.956 42.3015 120.342 42.3015 121.263C42.3015 122.185 43.3263 122.185 43.3263 122.185C43.3263 122.185 42.0975 123.718 43.0191 124.026C43.9407 124.333 44.5527 123.207 44.5527 123.207C44.5527 123.207 45.1671 124.23 45.9927 123.822C46.8183 123.414 46.1991 122.492 46.1991 122.492C46.1991 122.492 46.8063 121.652 46.7055 121.244L46.7031 121.256ZM44.6559 122.79C44.5786 122.772 44.5077 122.734 44.4514 122.678C44.3951 122.622 44.3558 122.551 44.3379 122.474C44.3201 122.397 44.3244 122.316 44.3505 122.242C44.3765 122.167 44.4232 122.101 44.4851 122.051C44.5471 122.002 44.6217 121.971 44.7005 121.962C44.7792 121.953 44.8588 121.967 44.9302 122.002C45.0015 122.036 45.0616 122.09 45.1035 122.157C45.1454 122.225 45.1675 122.302 45.1671 122.382C45.1492 122.5 45.0865 122.608 44.9918 122.681C44.8971 122.755 44.7777 122.789 44.6583 122.778L44.6559 122.79ZM57.8559 113.274H58.9815C59.7999 113.274 60.3111 114.195 60.3111 114.195C58.5735 114.694 57.8583 113.262 57.8583 113.262L57.8559 113.274ZM56.7303 121.256H57.8559C58.6743 121.256 59.1855 122.178 59.1855 122.178C57.4479 122.677 56.7327 121.244 56.7327 121.244L56.7303 121.256ZM46.9095 119.72H48.0351C48.8535 119.72 49.3647 120.642 49.3647 120.642C47.6247 121.141 46.9095 119.72 46.9095 119.72ZM52.3503 112.498L53.0079 113.413C53.4879 114.08 53.0343 115.03 53.0343 115.03C51.6039 113.905 52.3503 112.486 52.3503 112.486V112.498ZM46.7199 115.556L47.2335 114.555C47.6103 113.835 48.6615 113.792 48.6615 113.792C48.3087 115.573 46.7199 115.556 46.7199 115.556Z" fill="white"/>
<path d="M101.653 110.192C101.55 109.784 100.014 110.398 100.014 110.398C100.014 110.398 100.528 108.454 99.7095 108.454C98.8911 108.454 98.7879 109.894 98.7879 109.894C98.7879 109.894 97.2519 109.282 97.2519 110.202C97.2519 111.121 98.2767 111.123 98.2767 111.123C98.2767 111.123 97.0479 112.659 97.9695 112.966C98.8911 113.274 99.5031 112.146 99.5031 112.146C99.5031 112.146 100.117 113.17 100.943 112.76C101.769 112.35 101.147 111.43 101.147 111.43C101.147 111.43 101.754 110.6 101.653 110.192ZM99.6063 111.728C99.529 111.711 99.4582 111.672 99.402 111.616C99.3457 111.561 99.3064 111.49 99.2884 111.413C99.2705 111.336 99.2747 111.256 99.3005 111.181C99.3264 111.106 99.3728 111.04 99.4345 110.991C99.4962 110.941 99.5707 110.91 99.6493 110.901C99.7279 110.892 99.8075 110.905 99.8789 110.939C99.9503 110.973 100.011 111.027 100.053 111.094C100.095 111.161 100.117 111.238 100.117 111.318C100.103 111.439 100.041 111.551 99.9457 111.627C99.8501 111.704 99.7282 111.74 99.6063 111.728ZM106.461 118.174C106.36 117.764 104.824 118.378 104.824 118.378C104.824 118.378 105.335 116.434 104.517 116.434C103.698 116.434 103.597 117.874 103.597 117.874C103.597 117.874 102.061 117.26 102.061 118.182C102.061 119.103 103.084 119.103 103.084 119.103C103.084 119.103 101.857 120.637 102.779 120.944C103.701 121.251 104.313 120.126 104.313 120.126C104.313 120.126 104.927 121.148 105.753 120.74C106.578 120.332 105.957 119.41 105.957 119.41C105.957 119.41 106.564 118.582 106.461 118.174ZM104.416 119.72C104.339 119.703 104.268 119.664 104.211 119.608C104.155 119.552 104.116 119.482 104.098 119.405C104.08 119.327 104.084 119.247 104.11 119.172C104.136 119.097 104.183 119.031 104.245 118.982C104.307 118.932 104.382 118.901 104.46 118.893C104.539 118.884 104.619 118.897 104.69 118.932C104.761 118.967 104.822 119.021 104.863 119.088C104.905 119.155 104.927 119.233 104.927 119.312C104.912 119.433 104.85 119.544 104.755 119.62C104.659 119.696 104.537 119.732 104.416 119.72ZM101.346 121.256C101.243 120.846 99.7095 121.46 99.7095 121.46C99.7095 121.46 100.221 119.516 99.4023 119.516C98.5839 119.516 98.4807 120.956 98.4807 120.956C98.4807 120.956 96.9447 120.342 96.9447 121.263C96.9447 122.185 97.9695 122.185 97.9695 122.185C97.9695 122.185 96.7407 123.718 97.6623 124.026C98.5839 124.333 99.1959 123.207 99.1959 123.207C99.1959 123.207 99.8103 124.23 100.636 123.822C101.461 123.414 100.842 122.492 100.842 122.492C100.842 122.492 101.44 121.652 101.346 121.244V121.256ZM99.2991 122.79C99.2217 122.772 99.1508 122.734 99.0945 122.678C99.0383 122.622 98.9989 122.551 98.9811 122.474C98.9632 122.397 98.9676 122.316 98.9936 122.242C99.0197 122.167 99.0663 122.101 99.1283 122.051C99.1902 122.002 99.2649 121.971 99.3436 121.962C99.4224 121.953 99.502 121.967 99.5733 122.002C99.6446 122.036 99.7047 122.09 99.7467 122.157C99.7886 122.225 99.8106 122.302 99.8103 122.382C99.7924 122.501 99.7293 122.608 99.6341 122.682C99.5388 122.756 99.4189 122.79 99.2991 122.778V122.79ZM106.053 115.218H107.178C107.997 115.218 108.508 116.139 108.508 116.139C106.768 116.638 106.053 115.206 106.053 115.206V115.218ZM93.9783 121.04H95.1039C95.9223 121.04 96.4335 121.959 96.4335 121.959C94.6935 122.473 93.9783 121.04 93.9783 121.04ZM100.545 114.44L101.202 115.354C101.682 116.022 101.229 116.972 101.229 116.972C99.7983 115.849 100.545 114.44 100.545 114.44ZM107.2 120.162L107.855 121.076C108.335 121.741 107.881 122.694 107.881 122.694C106.451 121.578 107.2 120.162 107.2 120.162ZM94.9047 117.5L95.4183 116.499C95.7951 115.779 96.8583 115.736 96.8583 115.736C96.5031 117.517 94.9023 117.5 94.9023 117.5H94.9047Z" fill="white"/>
</svg>
