<svg width="150" height="150" viewBox="0 0 150 150" fill="none" xmlns="http://www.w3.org/2000/svg">
<circle cx="75" cy="75" r="75" fill="white"/>
<path d="M125.946 64.6966C114.248 44.6614 82.5179 51.7966 76.0379 42.0526C72.7187 37.0702 69.0059 31.279 63.6203 28.2718C58.4867 25.3918 52.5347 24.3814 47.3459 24.7606C28.8155 26.1166 20.9603 42.6958 24.5195 60.9022C29.2715 85.1878 50.7995 109.997 76.3739 110.169C89.7515 110.27 102.534 105.47 112.542 98.719L112.765 98.5678C122.773 91.7542 134.879 79.9918 125.946 64.6966Z" fill="#925CEC"/>
<path opacity="0.7" d="M125.946 64.6966C114.248 44.6614 82.5179 51.7966 76.0379 42.0526C72.7187 37.0702 69.0059 31.279 63.6203 28.2718C58.4867 25.3918 52.5347 24.3814 47.3459 24.7606C28.8155 26.1166 20.9603 42.6958 24.5195 60.9022C29.2715 85.1878 50.7995 109.997 76.3739 110.169C89.7515 110.27 102.534 105.47 112.542 98.719L112.765 98.5678C122.773 91.7542 134.879 79.9918 125.946 64.6966Z" fill="white"/>
<path d="M36.7657 70.6432H35.4649C34.069 70.6432 32.7303 71.1977 31.7432 72.1848C30.7562 73.1718 30.2017 74.5105 30.2017 75.9064V104.788C30.2017 106.184 30.7562 107.523 31.7432 108.51C32.7303 109.497 34.069 110.051 35.4649 110.051H53.3113C54.7071 110.051 56.0459 109.497 57.0329 108.51C58.0199 107.523 58.5745 106.184 58.5745 104.788" stroke="#263238" stroke-width="1.10311" stroke-linecap="round" stroke-linejoin="round" stroke-dasharray="4.41 4.41"/>
<path d="M57.1201 43.3912V37.6864C57.1201 36.8328 57.4587 36.0141 58.0616 35.4098C58.6645 34.8055 59.4825 34.4651 60.3361 34.4632H83.5441C84.399 34.4632 85.2188 34.8028 85.8233 35.4073C86.4277 36.0117 86.7673 36.8316 86.7673 37.6864" stroke="#263238" stroke-width="1.10311" stroke-linecap="round" stroke-linejoin="round" stroke-dasharray="4.41 4.41"/>
<path d="M121.33 51.0448V94.2592C121.33 95.6719 120.769 97.0267 119.77 98.0258C118.771 99.0249 117.417 99.5866 116.004 99.5872H39.996C38.5834 99.5866 37.2288 99.0249 36.2301 98.0258C35.2314 97.0267 34.6704 95.6719 34.6704 94.2592V51.0448C34.6704 50.9176 34.6704 50.8048 34.6872 50.6704C34.7808 49.3261 35.3807 48.0673 36.3659 47.148C37.3512 46.2286 38.6485 45.7172 39.996 45.7168H116.004C117.353 45.7174 118.652 46.2301 119.637 47.1515C120.623 48.0728 121.222 49.334 121.313 50.68C121.325 50.7952 121.33 50.92 121.33 51.0448Z" fill="white" stroke="#263238" stroke-width="1.10311" stroke-linecap="round" stroke-linejoin="round"/>
<path d="M37.2625 52.6672H119.009V92.5864C119.009 93.9104 118.483 95.1801 117.547 96.1163C116.611 97.0525 115.341 97.5784 114.017 97.5784H42.2569C40.9329 97.5784 39.6632 97.0525 38.727 96.1163C37.7908 95.1801 37.2648 93.9104 37.2648 92.5864V52.6672H37.2625Z" fill="#263238"/>
<path opacity="0.2" d="M119.011 52.6672V92.5864C119.018 93.903 118.502 95.1684 117.576 96.1045C116.651 97.0406 115.391 97.5708 114.075 97.5784H42.1993C40.8828 97.5708 39.6231 97.0406 38.6974 96.1045C37.7716 95.1684 37.2555 93.903 37.2625 92.5864V52.6672H119.011Z" fill="white"/>
<path d="M121.313 50.68H34.6873C34.7808 49.3357 35.3807 48.0769 36.366 47.1576C37.3512 46.2382 38.6485 45.7268 39.9961 45.7264H116.004C117.352 45.7268 118.649 46.2382 119.634 47.1576C120.619 48.0769 121.219 49.3357 121.313 50.68Z" fill="#9E00FF" stroke="#263238" stroke-width="1.10311" stroke-miterlimit="10"/>
<path d="M45.3312 48.1936C45.3312 48.3801 45.2759 48.5625 45.1723 48.7176C45.0686 48.8727 44.9213 48.9936 44.749 49.065C44.5766 49.1364 44.387 49.1551 44.204 49.1187C44.0211 49.0823 43.853 48.9924 43.7211 48.8605C43.5892 48.7286 43.4993 48.5606 43.4629 48.3776C43.4266 48.1946 43.4452 48.005 43.5166 47.8327C43.588 47.6603 43.7089 47.513 43.864 47.4094C44.0191 47.3057 44.2015 47.2504 44.388 47.2504C44.6382 47.2504 44.8781 47.3498 45.055 47.5267C45.2319 47.7035 45.3312 47.9434 45.3312 48.1936Z" fill="#263238"/>
<path d="M49.32 48.1936C49.32 48.3801 49.2647 48.5625 49.161 48.7176C49.0574 48.8727 48.9101 48.9936 48.7377 49.065C48.5654 49.1364 48.3757 49.1551 48.1928 49.1187C48.0098 49.0823 47.8418 48.9924 47.7099 48.8605C47.5779 48.7286 47.4881 48.5606 47.4517 48.3776C47.4153 48.1946 47.434 48.005 47.5054 47.8327C47.5768 47.6603 47.6977 47.513 47.8528 47.4094C48.0079 47.3057 48.1902 47.2504 48.3768 47.2504C48.6269 47.2504 48.8669 47.3498 49.0437 47.5267C49.2206 47.7035 49.32 47.9434 49.32 48.1936Z" fill="#263238"/>
<path d="M52.3656 49.1368C52.8865 49.1368 53.3088 48.7145 53.3088 48.1936C53.3088 47.6727 52.8865 47.2504 52.3656 47.2504C51.8447 47.2504 51.4224 47.6727 51.4224 48.1936C51.4224 48.7145 51.8447 49.1368 52.3656 49.1368Z" fill="#263238"/>
<path d="M119.009 52.6672V92.5864C119.009 93.9104 118.483 95.1801 117.547 96.1163C116.61 97.0525 115.341 97.5784 114.017 97.5784H42.2567C41.1012 97.5782 39.9816 97.1771 39.0887 96.4436C38.1959 95.7101 37.5852 94.6895 37.3607 93.556V93.5416C37.2997 93.2253 37.2692 92.9038 37.2695 92.5816V52.6672H119.009Z" stroke="#263238" stroke-width="1.10311" stroke-miterlimit="10"/>
<path d="M118.932 58.84C118.582 58.6435 118.21 58.4896 117.823 58.3816L117.375 56.3776H115.469L115.025 58.3816C114.636 58.4876 114.262 58.6416 113.911 58.84L112.191 57.7384L110.844 59.08L111.927 60.8008C111.728 61.1517 111.574 61.5257 111.468 61.9144L109.464 62.3584V64.264L111.468 64.7128C111.573 65.1034 111.727 65.4792 111.927 65.8312L110.825 67.564L112.174 68.9104L113.904 67.8088C114.254 68.0075 114.627 68.1623 115.015 68.2696L115.462 70.2712H117.36L117.807 68.2696C118.193 68.1612 118.566 68.0065 118.915 67.8088L119.004 67.8664V58.792L118.932 58.84ZM116.427 65.8C115.939 65.8 115.463 65.6555 115.058 65.3848C114.653 65.1142 114.338 64.7294 114.151 64.2794C113.965 63.8293 113.916 63.334 114.012 62.8563C114.107 62.3786 114.342 61.9398 114.686 61.5956C115.031 61.2513 115.47 61.017 115.948 60.9222C116.425 60.8275 116.921 60.8766 117.37 61.0633C117.82 61.2501 118.205 61.566 118.475 61.9713C118.745 62.3766 118.889 62.8529 118.889 63.34C118.889 63.6632 118.825 63.9833 118.701 64.2819C118.578 64.5806 118.396 64.8519 118.168 65.0803C117.939 65.3088 117.667 65.4899 117.369 65.6134C117.07 65.7369 116.75 65.8003 116.427 65.8Z" fill="#263238"/>
<path d="M84.5881 60.772V56.7544L80.3641 55.816C80.1361 54.9998 79.8139 54.2129 79.4041 53.4712L79.9153 52.6672H59.9713L60.4633 53.4496C60.0483 54.188 59.7259 54.9748 59.5033 55.792L55.2769 56.7328V60.76L59.5033 61.7032C59.7259 62.5265 60.0483 63.3196 60.4633 64.0648L58.1425 67.7152L60.9865 70.5568L64.6345 68.2336C65.3745 68.6499 66.1617 68.9762 66.9793 69.2056L67.9201 73.4176H71.9281L72.8737 69.196C73.6885 68.9655 74.4732 68.6392 75.2113 68.224L78.8617 70.5472L81.7033 67.7056L79.3969 64.0552C79.8057 63.3147 80.1278 62.5295 80.3569 61.7152L84.5881 60.772ZM69.9481 63.9544C68.9213 63.9544 67.9177 63.6499 67.064 63.0795C66.2103 62.5091 65.5449 61.6984 65.152 60.7498C64.7591 59.8012 64.6563 58.7574 64.8566 57.7504C65.0569 56.7434 65.5513 55.8185 66.2773 55.0925C67.0033 54.3665 67.9283 53.8721 68.9353 53.6717C69.9423 53.4714 70.9861 53.5742 71.9346 53.9672C72.8832 54.3601 73.694 55.0254 74.2644 55.8791C74.8348 56.7328 75.1393 57.7365 75.1393 58.7632C75.1396 59.445 75.0055 60.1202 74.7447 60.7502C74.484 61.3801 74.1016 61.9525 73.6195 62.4346C73.1374 62.9167 72.565 63.2991 71.935 63.5599C71.305 63.8207 70.6299 63.9547 69.9481 63.9544Z" fill="#263238"/>
<path d="M57.9313 88.36L58.1017 85.1704L54.7969 84.2392C54.6434 83.5837 54.4164 82.9477 54.1201 82.3432L56.1169 79.54L53.976 77.1664L50.9857 78.8464C50.4141 78.4868 49.8028 78.1944 49.1641 77.9752L48.5929 74.5864L45.4057 74.44L44.4841 77.7544C43.8274 77.9016 43.1909 78.1273 42.5881 78.4264L39.7873 76.432L37.4089 78.5704L39.1033 81.5632C38.74 82.1323 38.4467 82.7431 38.2297 83.3824L37.2697 83.5408V87.8608L37.9705 88.0576C38.1158 88.7152 38.3407 89.3527 38.6401 89.956L37.2625 91.888L37.3537 93.5416V93.556L38.7769 95.1328L41.7721 93.4408C42.3427 93.8078 42.956 94.1036 43.5985 94.3216L44.1601 97.576L44.1865 97.7128L47.3737 97.8808L47.4577 97.576L48.2953 94.5688C48.9548 94.4211 49.5945 94.1955 50.2009 93.8968L52.9969 95.8888L55.3729 93.7528L53.6929 90.7576C54.0527 90.1892 54.3421 89.5791 54.5545 88.9408L57.9313 88.36ZM49.4665 83.38C48.9205 82.7727 48.2067 82.341 47.4154 82.1395C46.624 81.938 45.7907 81.9757 45.0208 82.2479C44.2509 82.5201 43.579 83.0145 43.0901 83.6686C42.6013 84.3227 42.3174 85.1071 42.2744 85.9225C42.2314 86.738 42.4312 87.5479 42.8486 88.2498C43.266 88.9516 43.8822 89.514 44.6192 89.8656C45.3562 90.2172 46.181 90.3423 46.9891 90.2251C47.7972 90.1079 48.5525 89.7537 49.1593 89.2072C49.9694 88.4752 50.4566 87.4521 50.5142 86.3618C50.5717 85.2715 50.195 84.2028 49.4665 83.3896V83.38Z" fill="#263238"/>
<path d="M83.4239 83.6056C83.5472 83.1117 83.6125 82.605 83.6183 82.096L85.9103 80.896L85.2767 78.5704L82.6895 78.6904C82.4275 78.2557 82.1158 77.853 81.7607 77.4904L82.5263 75.016L80.4383 73.816L78.6911 75.7216C78.1981 75.6026 77.6934 75.5382 77.1863 75.5296L75.9863 73.2376L73.6631 73.8688L73.7855 76.4584C73.3508 76.7204 72.9481 77.0321 72.5855 77.3872L70.1087 76.6216L68.9087 78.7072L70.8287 80.452C70.7045 80.944 70.6409 81.4494 70.6391 81.9568L68.3423 83.1568L68.9759 85.48L71.5679 85.3576C71.8248 85.7945 72.1352 86.1976 72.4919 86.5576L71.7215 89.02L73.8119 90.22L75.5495 88.3288C76.0431 88.453 76.5501 88.5167 77.0591 88.5184L78.2591 90.8128L80.5823 90.1816L80.4791 87.9688L80.4623 87.5896C80.9031 87.3301 81.3108 87.0183 81.6767 86.6608L84.1511 87.4288L85.1735 85.6432L85.3463 85.3408L83.4239 83.6056ZM77.9351 85.0168C77.3393 85.1811 76.7082 85.1648 76.1217 84.9699C75.5352 84.775 75.0198 84.4103 74.6409 83.9221C74.262 83.4339 74.0366 82.8441 73.9933 82.2276C73.95 81.6111 74.0907 80.9957 74.3977 80.4593C74.7047 79.9229 75.1641 79.4898 75.7176 79.2148C76.2711 78.9399 76.8937 78.8355 77.5066 78.915C78.1195 78.9944 78.695 79.254 79.1601 79.661C79.6252 80.068 79.959 80.6039 80.1191 81.2008C80.3325 81.9963 80.2226 82.844 79.8135 83.5589C79.4043 84.2737 78.7291 84.7978 77.9351 85.0168Z" fill="#263238"/>
<path d="M109.997 87.6952L110.525 84.5032L107.294 83.2048C107.221 82.5245 107.066 81.8556 106.831 81.2128L109.157 78.6232L107.275 75.9832L104.069 77.344C103.536 76.9173 102.955 76.5563 102.336 76.2688L102.149 72.7912L98.9568 72.2632L97.6488 75.4792C96.9715 75.5588 96.3055 75.7158 95.664 75.9472L93.0672 73.6216L90.4392 75.5032L91.8024 78.7072C91.4272 79.1755 91.1014 79.6814 90.8304 80.2168C90.7944 80.2912 90.756 80.3656 90.7224 80.44L87.2472 80.632L86.7168 83.8192L87.24 84.0304L89.9472 85.1224C90.0211 85.7995 90.1766 86.4651 90.4104 87.1048L88.08 89.7112L89.964 92.3512L93.168 90.9832C93.6986 91.4137 94.2797 91.778 94.8984 92.068L95.0784 95.5288L98.268 96.0568L99.5736 92.8648C100.252 92.7906 100.92 92.6343 101.561 92.3992L104.153 94.7248L106.793 92.8408L105.43 89.6344C105.864 89.1016 106.231 88.5171 106.522 87.8944L109.997 87.6952ZM101.045 87.5512C100.373 88.033 99.574 88.3048 98.748 88.3323C97.9219 88.3598 97.1063 88.1417 96.4043 87.7056C95.7022 87.2696 95.1452 86.6351 94.8038 85.8824C94.4624 85.1298 94.3518 84.2928 94.4861 83.4773C94.6204 82.6618 94.9935 81.9045 95.5583 81.301C96.123 80.6976 96.854 80.2752 97.6588 80.0873C98.4637 79.8994 99.3061 79.9543 100.08 80.2452C100.853 80.5361 101.523 81.0499 102.005 81.7216C102.65 82.6226 102.911 83.743 102.73 84.8362C102.549 85.9294 101.941 86.9061 101.04 87.5512H101.045Z" fill="#263238"/>
<path d="M66.7393 64.0648H41.6401C39.9023 64.0648 38.4937 65.4735 38.4937 67.2112V101.961C38.4937 103.699 39.9023 105.107 41.6401 105.107H66.7393C68.477 105.107 69.8857 103.699 69.8857 101.961V67.2112C69.8857 65.4735 68.477 64.0648 66.7393 64.0648Z" fill="#9E00FF" stroke="#263238" stroke-width="1.10311" stroke-miterlimit="10"/>
<path opacity="0.2" d="M66.7393 64.0648H41.6401C39.9023 64.0648 38.4937 65.4735 38.4937 67.2112V101.961C38.4937 103.699 39.9023 105.107 41.6401 105.107H66.7393C68.477 105.107 69.8857 103.699 69.8857 101.961V67.2112C69.8857 65.4735 68.477 64.0648 66.7393 64.0648Z" fill="black"/>
<path d="M72.8064 70.312V105.062C72.8067 105.475 72.7255 105.884 72.5675 106.266C72.4096 106.648 72.1778 106.996 71.8856 107.288C71.5934 107.58 71.2465 107.812 70.8646 107.971C70.4827 108.129 70.0733 108.21 69.66 108.21H44.5607C44.1476 108.21 43.7385 108.128 43.3569 107.97C42.9752 107.812 42.6286 107.58 42.3366 107.287C42.0447 106.995 41.8132 106.648 41.6553 106.266C41.4975 105.884 41.4164 105.475 41.4167 105.062V70.312C41.4167 69.4779 41.7479 68.678 42.3375 68.088C42.927 67.498 43.7267 67.1662 44.5607 67.1656H69.66C70.4944 67.1656 71.2947 67.4971 71.8848 68.0872C72.4749 68.6772 72.8064 69.4775 72.8064 70.312Z" fill="white" stroke="#263238" stroke-width="1.10311" stroke-linecap="round" stroke-linejoin="round"/>
<path d="M72.8064 70.312V72.172H41.4167V70.312C41.4167 69.4779 41.7479 68.678 42.3375 68.088C42.927 67.498 43.7267 67.1662 44.5607 67.1656H69.6599C70.4944 67.1656 71.2947 67.4971 71.8848 68.0872C72.4749 68.6772 72.8064 69.4775 72.8064 70.312Z" fill="#9E00FF" stroke="#263238" stroke-width="1.10311" stroke-miterlimit="10"/>
<path d="M52.0921 74.3272H44.3689V75.6232H52.0921V74.3272Z" fill="#9E00FF"/>
<path d="M52.0921 85.9408H44.3689V87.2368H52.0921V85.9408Z" fill="#9E00FF"/>
<path d="M52.0921 96.472H44.3689V97.768H52.0921V96.472Z" fill="#9E00FF"/>
<path d="M66.3025 77.536H44.3689V78.4864H66.3025V77.536Z" fill="#263238"/>
<path d="M62.3473 79.3528H44.3689V80.2792H62.3473V79.3528Z" fill="#263238"/>
<path d="M64.7017 81.1408H44.3689V82.0672H64.7017V81.1408Z" fill="#263238"/>
<path d="M64.7017 82.9264H44.3689V83.8528H64.7017V82.9264Z" fill="#263238"/>
<path d="M66.3025 88.0672H44.3689V89.0176H66.3025V88.0672Z" fill="#263238"/>
<path d="M62.3473 89.884H44.3689V90.8104H62.3473V89.884Z" fill="#263238"/>
<path d="M64.7017 91.672H44.3689V92.5984H64.7017V91.672Z" fill="#263238"/>
<path d="M66.3025 99.6304H44.3689V100.581H66.3025V99.6304Z" fill="#263238"/>
<path d="M62.3473 101.45H44.3689V102.376H62.3473V101.45Z" fill="#263238"/>
<path d="M64.7017 103.238H44.3689V104.164H64.7017V103.238Z" fill="#263238"/>
<path d="M108.185 43.0696V57.1144C108.185 57.6072 108.088 58.0952 107.899 58.5505C107.711 59.0058 107.434 59.4194 107.085 59.7677C106.737 60.1161 106.323 60.3924 105.868 60.5807C105.412 60.7691 104.924 60.8659 104.431 60.8656H72.0842C71.5913 60.8659 71.1033 60.7691 70.6479 60.5807C70.1925 60.3924 69.7787 60.1161 69.4301 59.7677C69.0815 59.4194 68.805 59.0058 68.6163 58.5505C68.4277 58.0952 68.3306 57.6072 68.3306 57.1144V43.0696C68.3312 42.0743 68.7269 41.1199 69.4307 40.4161C70.1345 39.7123 71.0888 39.3166 72.0842 39.316H104.431C105.427 39.316 106.382 39.7115 107.086 40.4154C107.789 41.1193 108.185 42.0741 108.185 43.0696Z" fill="white" stroke="#222221" stroke-width="1.10311" stroke-miterlimit="10"/>
<path d="M108.185 43.0696V43.3912H68.3306V43.0696C68.3312 42.0743 68.7269 41.1199 69.4307 40.4161C70.1345 39.7123 71.0888 39.3166 72.0842 39.316H104.431C105.427 39.316 106.382 39.7115 107.086 40.4154C107.789 41.1193 108.185 42.0741 108.185 43.0696Z" fill="#9E00FF" stroke="#263238" stroke-width="1.10311" stroke-miterlimit="10"/>
<path d="M74.1864 42.0256C74.1059 42.1063 74.0033 42.1613 73.8915 42.1836C73.7797 42.206 73.6639 42.1946 73.5585 42.1511C73.4532 42.1075 73.3632 42.0337 73.2998 41.939C73.2365 41.8442 73.2026 41.7328 73.2026 41.6188C73.2026 41.5048 73.2365 41.3934 73.2998 41.2986C73.3632 41.2039 73.4532 41.1301 73.5585 41.0865C73.6639 41.043 73.7797 41.0316 73.8915 41.054C74.0033 41.0763 74.1059 41.1313 74.1864 41.212C74.2936 41.3203 74.3537 41.4665 74.3537 41.6188C74.3537 41.7711 74.2936 41.9173 74.1864 42.0256Z" fill="#263238"/>
<path d="M76.8554 42.0256C76.7749 42.1063 76.6722 42.1613 76.5605 42.1836C76.4487 42.206 76.3328 42.1946 76.2275 42.1511C76.1221 42.1075 76.0321 42.0337 75.9688 41.939C75.9054 41.8442 75.8716 41.7328 75.8716 41.6188C75.8716 41.5048 75.9054 41.3934 75.9688 41.2986C76.0321 41.2039 76.1221 41.1301 76.2275 41.0865C76.3328 41.043 76.4487 41.0316 76.5605 41.054C76.6722 41.0763 76.7749 41.1313 76.8554 41.212C76.9625 41.3203 77.0226 41.4665 77.0226 41.6188C77.0226 41.7711 76.9625 41.9173 76.8554 42.0256Z" fill="#263238"/>
<path d="M79.5241 42.0256C79.4436 42.1063 79.3409 42.1613 79.2292 42.1836C79.1174 42.206 79.0015 42.1946 78.8962 42.1511C78.7909 42.1075 78.7008 42.0337 78.6375 41.939C78.5741 41.8442 78.5403 41.7328 78.5403 41.6188C78.5403 41.5048 78.5741 41.3934 78.6375 41.2986C78.7008 41.2039 78.7909 41.1301 78.8962 41.0865C79.0015 41.043 79.1174 41.0316 79.2292 41.054C79.3409 41.0763 79.4436 41.1313 79.5241 41.212C79.6312 41.3203 79.6913 41.4665 79.6913 41.6188C79.6913 41.7711 79.6312 41.9173 79.5241 42.0256Z" fill="#263238"/>
<path d="M83.8993 45.9736H70.8721V57.2344H83.8993V45.9736Z" stroke="#263238" stroke-width="1.10311" stroke-linecap="round" stroke-linejoin="round" stroke-dasharray="4.41 4.41"/>
<path d="M100.903 45.9736H85.9104V46.7656H100.903V45.9736Z" fill="#263238"/>
<path d="M97.4112 47.6128H85.9104V48.4024H97.4112V47.6128Z" fill="#263238"/>
<path d="M103.034 49.2448H85.9104V50.044H103.034V49.2448Z" fill="#263238"/>
<path d="M100.493 50.836H85.9104V51.6352H100.493V50.836Z" fill="#263238"/>
<path d="M109.274 77.9272H101.942C101.077 77.9272 100.375 78.6289 100.375 79.4944V83.7976C100.375 84.6631 101.077 85.3648 101.942 85.3648H109.274C110.14 85.3648 110.842 84.6631 110.842 83.7976V79.4944C110.842 78.6289 110.14 77.9272 109.274 77.9272Z" fill="white" stroke="#263238" stroke-width="1.10311" stroke-linecap="round" stroke-linejoin="round"/>
<path d="M103.752 80.164L101.739 81.4264L103.608 83.0824" stroke="#263238" stroke-width="1.10311" stroke-linecap="round" stroke-linejoin="round"/>
<path d="M107.419 83.2024L109.229 81.6616L107.141 80.2936" stroke="#263238" stroke-width="1.10311" stroke-linecap="round" stroke-linejoin="round"/>
<path d="M104.731 84.1528L106.217 79.492" stroke="#263238" stroke-width="1.10311" stroke-linecap="round" stroke-linejoin="round"/>
</svg>
