<svg width="698" height="574" viewBox="0 0 698 574" fill="none" xmlns="http://www.w3.org/2000/svg">
<path d="M680.446 74.544H140.557C131.247 74.544 123.7 82.0911 123.7 91.4008V440.089C123.7 449.399 131.247 456.946 140.557 456.946H680.446C689.755 456.946 697.302 449.399 697.302 440.089V91.4008C697.302 82.0911 689.755 74.544 680.446 74.544Z" fill="#F5F5F5"/>
<path d="M669.547 83.8768H149.905C140.595 83.8768 133.048 91.4238 133.048 100.734V429.692C133.048 439.002 140.595 446.549 149.905 446.549H669.547C678.857 446.549 686.404 439.002 686.404 429.692V100.734C686.404 91.4238 678.857 83.8768 669.547 83.8768Z" fill="#DECEF9"/>
<path d="M673.362 195.521H141.378V395.872H673.362V195.521Z" fill="white"/>
<path d="M578.712 190.946H38.8232C29.5134 190.946 21.9664 198.493 21.9664 207.802V556.49C21.9664 565.8 29.5134 573.347 38.8232 573.347H578.712C588.022 573.347 595.569 565.8 595.569 556.49V207.802C595.569 198.493 588.022 190.946 578.712 190.946Z" fill="#F5F5F5"/>
<path d="M567.814 200.294H48.1712C38.8614 200.294 31.3144 207.841 31.3144 217.15V546.109C31.3144 555.419 38.8614 562.966 48.1712 562.966H567.814C577.123 562.966 584.67 555.419 584.67 546.109V217.15C584.67 207.841 577.123 200.294 567.814 200.294Z" fill="#DECEF9"/>
<path d="M571.629 311.922H39.644V512.274H571.629V311.922Z" fill="white"/>
<path d="M518.444 144.768C518.444 144.768 518.93 144.905 519.842 145.209C520.754 145.513 522.107 145.938 523.931 146.394C529.241 147.708 534.738 148.099 540.18 147.55C544.101 147.16 547.978 146.412 551.762 145.315C556.286 144.069 560.679 142.389 564.88 140.299C575.102 135.103 584.102 127.793 591.282 118.852C593.376 116.394 594.967 113.548 595.964 110.477C597 107.272 596.732 103.788 595.219 100.779C594.327 99.2966 593.087 98.0537 591.607 97.1585C590.126 96.2632 588.45 95.7426 586.722 95.6416C583.09 95.3166 579.439 96.0225 576.189 97.6784C574.468 98.4964 572.69 99.1873 570.869 99.7456C568.959 100.308 566.927 100.308 565.017 99.7456C564.011 99.4925 563.085 98.9932 562.321 98.2926C561.556 97.5921 560.979 96.7124 560.639 95.7328C560.372 94.7255 560.323 93.6728 560.496 92.6451C560.669 91.6175 561.06 90.6387 561.642 89.7744C562.757 88.0326 564.336 86.6373 566.202 85.7464C568.053 84.8611 569.963 84.1044 571.918 83.4816C575.82 82.0971 579.607 80.4046 583.242 78.42C586.975 76.3872 590.534 74.0485 593.882 71.428C595.61 70.1648 597.173 68.6889 598.533 67.0352C599.931 65.4356 600.726 63.3981 600.782 61.2744C600.703 60.2293 600.355 59.2224 599.772 58.3515C599.188 57.4806 598.39 56.7753 597.454 56.304C595.498 55.3286 593.346 54.8089 591.161 54.784C588.879 54.7545 586.605 54.5153 584.366 54.0696C583.181 53.829 582.071 53.309 581.127 52.5529C580.183 51.7969 579.433 50.8265 578.94 49.7224C578.714 49.1284 578.628 48.4902 578.689 47.8576C578.749 47.2249 578.955 46.6147 579.29 46.0744C579.986 45.0852 580.875 44.2475 581.904 43.612C583.789 42.3048 585.638 40.9216 587.452 39.4624C591.085 36.5171 594.485 33.2952 597.621 29.8256C600.919 26.4373 603.667 22.5551 605.768 18.3192C606.746 16.1787 607.17 13.8264 606.999 11.4792C606.796 9.12817 605.792 6.91793 604.157 5.2168C602.509 3.52878 600.457 2.29163 598.195 1.62365C595.932 0.955679 593.537 0.879231 591.237 1.40161C586.659 2.54075 582.551 5.08081 579.487 8.66721C573.179 15.7048 570.246 24.84 565.108 32.5008C563.847 34.4312 562.412 36.2424 560.822 37.912C560.044 38.7883 559.143 39.5462 558.146 40.1616C557.622 40.5128 557.015 40.72 556.385 40.7627C555.756 40.8054 555.126 40.682 554.559 40.4048C554.036 40.0643 553.589 39.6178 553.249 39.0942C552.909 38.5706 552.682 37.9815 552.583 37.3648C552.38 36.2315 552.334 35.0755 552.446 33.9296C552.562 32.8664 552.49 31.7911 552.234 30.7528C551.942 29.7477 551.386 28.8394 550.622 28.1232C549.848 27.417 548.942 26.8707 547.956 26.516C546.97 26.1612 545.923 26.0049 544.877 26.056C542.783 26.2439 540.82 27.158 539.329 28.64C537.849 30.1055 536.712 31.8809 536 33.8384C535.275 35.7935 534.825 37.8396 534.662 39.9184C534.298 44.068 534.465 48.248 534.404 52.3368C534.343 56.4256 534.404 60.4992 534.404 64.4968C534.404 68.4944 534.738 72.492 533.416 76.3072C533.109 77.2724 532.595 78.159 531.91 78.9047C531.225 79.6503 530.385 80.2372 529.449 80.624C527.563 81.233 525.523 81.1577 523.688 80.4112C520.19 79.0455 517.083 76.8369 514.644 73.9816C513.466 72.6109 512.446 71.1118 511.604 69.5128C510.834 67.9458 509.976 66.4233 509.035 64.9528C508.151 63.5309 506.803 62.4573 505.22 61.9128C503.644 61.4956 501.97 61.6629 500.508 62.384C499.059 63.0794 497.805 64.124 496.86 65.424C495.954 66.7146 495.342 68.1881 495.066 69.7408C494.674 72.8104 494.491 75.9031 494.519 78.9976C494.398 82.0376 494.382 84.956 494.428 87.8288C494.521 93.2172 495.003 98.5917 495.872 103.91C496.594 108.562 497.729 113.14 499.262 117.59C499.9 119.658 500.782 121.527 501.526 123.366C502.271 125.206 503.168 126.847 504.08 128.367C506.764 133.128 510.18 137.436 514.203 141.135C514.792 141.711 515.416 142.249 516.073 142.746L517.471 143.871L518.581 144.798C518.581 144.798 518.186 144.525 517.426 143.932L515.997 142.838C515.332 142.372 514.697 141.865 514.097 141.318C510.015 137.646 506.546 133.346 503.822 128.58C502.894 127.06 502.104 125.342 501.207 123.564C500.31 121.786 499.55 119.855 498.912 117.773C497.348 113.326 496.188 108.748 495.446 104.093C494.543 98.7517 494.035 93.3511 493.926 87.9352C493.926 85.0624 493.926 82.1136 493.926 79.0736C493.889 75.9541 494.067 72.8358 494.458 69.7408C494.749 68.1048 495.387 66.55 496.328 65.1808C497.332 63.8011 498.664 62.6935 500.204 61.9584C501.793 61.1735 503.613 60.9899 505.326 61.4416C507.038 62.0162 508.502 63.1585 509.476 64.6792C510.428 66.1517 511.301 67.6739 512.09 69.2392C512.936 70.7989 513.955 72.2574 515.13 73.5864C517.504 76.3457 520.514 78.4848 523.901 79.8184C525.598 80.4962 527.478 80.566 529.221 80.016C530.064 79.6618 530.82 79.1271 531.434 78.4496C532.049 77.772 532.507 76.9682 532.778 76.0944C534.024 72.5072 533.614 68.4944 533.705 64.512C533.796 60.5296 533.705 56.4712 533.705 52.352C533.705 48.2328 533.583 44.0984 533.948 39.8576C534.116 37.7062 534.582 35.5885 535.331 33.5648C536.105 31.5011 537.331 29.6366 538.918 28.108C540.556 26.496 542.708 25.5113 544.998 25.3264C547.282 25.2399 549.509 26.0531 551.2 27.5912C552.08 28.4146 552.711 29.4676 553.024 30.6312C553.3 31.7489 553.382 32.9057 553.267 34.0512C553.161 35.1309 553.202 36.2201 553.389 37.2888C553.472 37.7908 553.656 38.2706 553.931 38.6991C554.205 39.1277 554.564 39.4959 554.985 39.7816C555.439 39.9921 555.94 40.0804 556.438 40.0378C556.937 39.9951 557.416 39.823 557.827 39.5384C558.758 38.9314 559.598 38.1943 560.32 37.3496C561.875 35.7107 563.279 33.9353 564.515 32.0448C569.577 24.4448 572.495 15.3248 578.94 8.10481C582.114 4.39857 586.365 1.77391 591.1 0.596008C593.537 0.0417326 596.075 0.12394 598.471 0.834714C600.867 1.54549 603.04 2.86091 604.78 4.65441C606.531 6.48113 607.603 8.85195 607.82 11.3728C608 13.8497 607.556 16.3322 606.528 18.5928C604.399 22.9184 601.598 26.879 598.229 30.3272C595.058 33.8185 591.629 37.0654 587.969 40.04C586.16 41.56 584.275 42.8976 582.375 44.22C581.437 44.8014 580.621 45.5604 579.974 46.4544C579.69 46.9031 579.517 47.4128 579.47 47.9414C579.422 48.47 579.501 49.0023 579.7 49.4944C580.166 50.4724 580.856 51.3264 581.714 51.9868C582.573 52.6472 583.575 53.0953 584.64 53.2944C586.834 53.728 589.062 53.962 591.298 53.9936C593.605 54.0406 595.871 54.6124 597.925 55.6656C598.956 56.2202 599.846 57.0057 600.524 57.9608C601.185 58.9386 601.564 60.08 601.618 61.2592C601.58 63.5626 600.724 65.7772 599.202 67.5064C597.817 69.2232 596.218 70.7557 594.444 72.0664C591.063 74.6978 587.474 77.0514 583.713 79.104C580.045 81.1052 576.223 82.808 572.282 84.196C570.354 84.805 568.47 85.5465 566.643 86.4152C564.868 87.2378 563.362 88.5443 562.296 90.1848C561.765 90.9659 561.407 91.8511 561.244 92.7814C561.082 93.7117 561.119 94.666 561.354 95.5808C561.661 96.4542 562.18 97.2378 562.864 97.8612C563.548 98.4847 564.377 98.9285 565.275 99.1528C567.067 99.6768 568.971 99.6768 570.762 99.1528C572.555 98.6141 574.303 97.9382 575.991 97.1312C579.352 95.4473 583.115 94.7316 586.859 95.064C588.69 95.2413 590.462 95.8061 592.058 96.7208C593.632 97.6356 594.929 98.9592 595.812 100.551C597.399 103.701 597.678 107.35 596.587 110.705C595.563 113.845 593.931 116.753 591.784 119.262C584.533 128.241 575.449 135.569 565.138 140.755C560.907 142.839 556.483 144.509 551.93 145.741C548.115 146.827 544.206 147.555 540.256 147.914C534.785 148.43 529.266 147.987 523.946 146.607C522.566 146.262 521.206 145.841 519.873 145.346C518.9 144.966 518.444 144.768 518.444 144.768Z" fill="#263238"/>
<path d="M601.36 4.10721C601.36 4.10721 601.238 4.25921 600.965 4.50241C600.691 4.74561 600.25 5.11041 599.749 5.56641C598.67 6.49361 597.089 7.86161 595.098 9.68561C589.465 14.8226 584.226 20.3762 579.426 26.2992C576.386 30.0384 573.179 34.264 569.85 38.8696C566.522 43.4752 563.01 48.4456 559.499 53.796C555.788 59.3589 552.388 65.1235 549.315 71.0632C547.719 74.1032 546.275 77.3864 544.831 80.6848C543.387 83.9832 541.913 87.3424 540.423 90.732C534.756 103.431 529.803 116.437 525.588 129.69C522.186 140.533 519.815 151.673 518.505 162.962C517.643 170.581 517.445 178.261 517.912 185.914C518.094 188.62 518.277 190.718 518.459 192.146C518.535 192.815 518.581 193.362 518.626 193.758C518.637 193.945 518.637 194.133 518.626 194.32C518.564 194.143 518.523 193.959 518.505 193.773C518.505 193.378 518.368 192.83 518.262 192.162C518.034 190.748 517.806 188.65 517.562 185.93C516.99 178.263 517.112 170.561 517.927 162.917C519.17 151.573 521.501 140.374 524.889 129.477C529.068 116.182 534.011 103.139 539.694 90.4128L544.102 80.3656C545.622 77.0824 547.005 73.8144 548.662 70.7136C551.762 64.7541 555.187 58.9694 558.922 53.3856C562.463 48.0352 566.005 43.0952 569.349 38.4896C572.693 33.884 575.93 29.6584 579.016 25.9344C583.87 20.0287 589.186 14.519 594.915 9.4576C596.937 7.664 598.548 6.32641 599.642 5.42961L600.919 4.42641L601.36 4.10721Z" fill="#263238"/>
<path d="M548.859 70.6984C548.673 70.1302 548.546 69.5445 548.479 68.9504C548.282 67.8256 548.038 66.1992 547.765 64.1624C547.233 60.1192 546.686 54.4952 546.093 48.3088C545.5 42.1224 544.892 36.4984 544.284 32.4704C543.995 30.464 543.737 28.8224 543.554 27.6976C543.424 27.1186 543.352 26.5279 543.342 25.9344C543.571 26.4868 543.74 27.0628 543.843 27.652C544.117 28.7464 544.451 30.3728 544.816 32.3944C545.546 36.4072 546.26 42.016 546.838 48.2328C547.415 54.4496 547.902 59.876 548.358 64.1016C548.54 66.0168 548.707 67.628 548.829 68.92C548.9 69.5102 548.91 70.1061 548.859 70.6984Z" fill="#263238"/>
<path d="M601.193 61.4112C600.509 61.5627 599.811 61.6441 599.11 61.6544C597.758 61.7608 595.827 61.8976 593.426 62.156C588.638 62.6272 582.041 63.5088 574.821 64.8008C567.601 66.0928 561.141 67.5672 556.429 68.768C554.088 69.3456 552.203 69.8624 550.896 70.212C550.234 70.4385 549.552 70.6014 548.859 70.6984C549.486 70.3757 550.142 70.1161 550.82 69.9232C552.097 69.4976 553.966 68.8896 556.292 68.2512C560.852 66.9136 567.434 65.3632 574.684 64.056C580.871 62.9274 587.111 62.1156 593.38 61.624C595.782 61.4416 597.742 61.3656 599.095 61.3504C599.795 61.3154 600.496 61.3357 601.193 61.4112Z" fill="#263238"/>
<path d="M525.558 128.534C525.419 128.334 525.302 128.12 525.208 127.896C524.98 127.379 524.691 126.756 524.342 125.996C523.582 124.339 522.548 121.922 521.302 118.913C518.824 112.909 515.693 104.503 512.349 95.1856C509.005 85.868 505.934 77.432 503.609 71.3824L500.812 64.2232C500.508 63.448 500.265 62.7944 500.067 62.2624C499.956 62.0434 499.884 61.8068 499.854 61.5632C499.997 61.766 500.115 61.9855 500.204 62.2168C500.447 62.7184 500.736 63.3416 501.086 64.1016C501.83 65.7584 502.864 68.1752 504.126 71.1848C506.588 77.2648 509.734 85.5944 513.078 94.9272C516.422 104.26 519.478 112.666 521.818 118.715L524.6 125.92L525.345 127.881C525.451 128.086 525.523 128.306 525.558 128.534Z" fill="#263238"/>
<path d="M595.189 106.814L594.505 107.087L592.468 107.741L585.02 110.082C578.727 112.058 570.063 114.885 560.487 118.031C550.911 121.178 542.247 123.929 535.878 125.768C532.717 126.695 530.148 127.425 528.354 127.881L526.302 128.398C526.063 128.484 525.812 128.531 525.558 128.534C525.777 128.412 526.012 128.32 526.257 128.261L528.278 127.592L535.726 125.251C542.034 123.275 550.698 120.448 560.259 117.317C569.82 114.186 578.499 111.419 584.868 109.565C588.03 108.638 590.614 107.923 592.468 107.452L594.535 106.935C594.746 106.865 594.966 106.824 595.189 106.814Z" fill="#263238"/>
<path d="M481.645 52.0328C483.934 52.2193 486.161 52.8645 488.196 53.9299C490.23 54.9953 492.029 56.4592 493.486 58.2344C496.387 61.8061 498.426 65.9983 499.444 70.4856C501.663 79.0736 500.174 89.1664 497.65 97.6632C488.409 94.2736 482.785 84.3328 480.231 79.1192C476.218 70.8656 473.969 53.5224 481.645 52.0328Z" fill="#9E00FF"/>
<path d="M510.905 108.151C509.533 105.982 508.759 103.488 508.66 100.923C508.561 98.3583 509.142 95.8127 510.342 93.544C511.587 91.3001 513.265 89.3261 515.28 87.7369C517.294 86.1477 519.605 84.9751 522.077 84.2872C523.176 83.8481 524.357 83.6546 525.539 83.7202C526.72 83.7859 527.873 84.1091 528.917 84.6672C529.798 85.3451 530.482 86.247 530.896 87.2789C531.311 88.3109 531.441 89.4351 531.273 90.5344C530.909 92.7263 529.97 94.7824 528.552 96.4928C523.992 102.573 518.474 107.589 510.905 108.151Z" fill="#9E00FF"/>
<path d="M511.68 136.773C511.489 136.194 511.352 135.599 511.27 134.994C511.042 133.718 510.738 132.076 510.373 130.1C509.198 124.721 508.9 119.188 509.491 113.714C510.166 108.183 512.313 102.934 515.708 98.5144C516.74 97.1989 517.93 96.0147 519.25 94.988C519.605 94.7054 519.976 94.4416 520.359 94.1976C520.495 94.1102 520.644 94.0436 520.8 94C519.074 95.4463 517.495 97.0603 516.088 98.8184C512.883 103.219 510.844 108.359 510.16 113.76C509.582 119.175 509.813 124.646 510.844 129.994C511.163 132.061 511.406 133.748 511.558 134.903C511.657 135.521 511.697 136.147 511.68 136.773Z" fill="#263238"/>
<path d="M484.533 65.12C484.676 65.3413 484.798 65.5754 484.898 65.8192C485.141 66.3512 485.445 67.0352 485.84 67.8864C486.63 69.6952 487.77 72.3248 489.138 75.5776C491.874 82.0832 495.522 91.1272 499.338 101.205C503.153 111.282 506.39 120.494 508.64 127.182C509.765 130.526 510.662 133.262 511.254 135.131L511.908 137.305C512 137.556 512.066 137.816 512.106 138.08C511.983 137.844 511.876 137.601 511.786 137.35C511.589 136.788 511.33 136.089 511.011 135.207C510.327 133.277 509.37 130.647 508.214 127.334C505.843 120.676 502.545 111.51 498.73 101.494C494.914 91.4768 491.342 82.3568 488.713 75.8056C487.421 72.5832 486.372 69.9536 485.597 68.0536L484.776 65.9256C484.658 65.6696 484.576 65.3985 484.533 65.12Z" fill="#263238"/>
<path d="M500.842 117.758C498.102 113.083 494.287 109.128 489.714 106.221C485.142 103.313 479.942 101.537 474.546 101.038C471.795 100.81 468.466 101.25 467.266 103.698C466.065 106.145 467.63 109.078 469.47 111.13C473.408 115.317 478.497 118.244 484.097 119.543C489.696 120.841 495.555 120.453 500.934 118.426" fill="#9E00FF"/>
<path d="M478.65 108.47C479.221 108.413 479.797 108.413 480.368 108.47C481.036 108.517 481.701 108.604 482.359 108.729C483.134 108.881 484.031 108.972 484.989 109.246C486.042 109.487 487.082 109.781 488.105 110.127C489.284 110.519 490.441 110.976 491.57 111.495C496.799 113.837 501.371 117.429 504.886 121.953C505.648 122.924 506.354 123.939 506.998 124.993C507.555 125.913 508.063 126.861 508.518 127.835C508.915 128.632 509.271 129.449 509.582 130.282C509.849 130.9 510.072 131.534 510.251 132.182C510.452 132.723 510.595 133.283 510.677 133.854C510.54 133.854 509.902 131.529 508.108 128.033C507.619 127.088 507.082 126.17 506.497 125.282C505.844 124.23 505.134 123.215 504.369 122.242C502.61 120.059 500.617 118.077 498.426 116.329C496.206 114.621 493.811 113.153 491.282 111.951C490.174 111.425 489.037 110.964 487.877 110.568C486.883 110.19 485.868 109.871 484.837 109.61C481.082 108.759 478.635 108.607 478.65 108.47Z" fill="#263238"/>
<path d="M637.475 129.264H97.5864C88.2767 129.264 80.7296 136.811 80.7296 146.121V494.809C80.7296 504.119 88.2767 511.666 97.5864 511.666H637.475C646.785 511.666 654.332 504.119 654.332 494.809V146.121C654.332 136.811 646.785 129.264 637.475 129.264Z" fill="#F5F5F5"/>
<path d="M626.577 138.612H106.934C97.6247 138.612 90.0776 146.159 90.0776 155.469V484.427C90.0776 493.737 97.6247 501.284 106.934 501.284H626.577C635.887 501.284 643.434 493.737 643.434 484.427V155.469C643.434 146.159 635.887 138.612 626.577 138.612Z" fill="#9E00FF"/>
<path d="M630.392 250.256H98.4072V450.607H630.392V250.256Z" fill="white"/>
<path d="M382.07 181.537V219.035H373.36V203.668H356.351V219.035H347.672V181.537H356.351V196.326H373.36V181.537H382.07Z" fill="white"/>
<path d="M420.009 212.074V219.035H390.977V181.537H419.31V188.498H399.55V196.646H416.954V203.44H399.595V212.119L420.009 212.074Z" fill="white"/>
<path d="M426.925 181.537H435.68V211.937H454.482V219.005H426.925V181.537Z" fill="white"/>
<path d="M459.286 181.537H467.965V211.937H486.782V219.005H459.286V181.537Z" fill="white"/>
<path d="M488.652 200.294C488.652 189.137 497.331 180.898 509.172 180.898C521.013 180.898 529.692 189.091 529.692 200.294C529.692 211.496 520.967 219.689 509.172 219.689C497.377 219.689 488.652 211.435 488.652 200.294ZM520.906 200.294C520.856 197.984 520.124 195.742 518.804 193.846C517.484 191.951 515.635 190.487 513.486 189.638C511.338 188.79 508.987 188.594 506.728 189.075C504.469 189.557 502.403 190.694 500.788 192.345C499.172 193.996 498.08 196.087 497.648 198.356C497.216 200.625 497.462 202.971 498.358 205.1C499.253 207.229 500.757 209.047 502.68 210.325C504.604 211.604 506.862 212.286 509.172 212.286C510.746 212.328 512.312 212.044 513.772 211.453C515.232 210.861 516.554 209.975 517.655 208.849C518.756 207.724 519.614 206.383 520.173 204.911C520.733 203.438 520.982 201.867 520.906 200.294Z" fill="white"/>
<path d="M77.0968 323.763L51.2568 371.309L53.3848 255.865C53.8708 248.531 56.3459 241.469 60.544 235.436C62.3243 232.728 64.4103 230.234 66.7608 228.003C69.8008 225.434 73.8592 222.182 76.6408 221.087C80.0912 219.719 80.1976 214.931 76.9904 214.095C73.7832 213.259 64.1768 216.786 55.8168 225.358C47.4568 233.931 49.3416 215.402 49.9192 208.638C50.4968 201.874 51.272 180.898 49.3264 179.135C46.484 176.536 43.0944 179.135 42.684 185.945C42.2736 192.754 39.644 212.925 36.0416 212.545C32.4392 212.165 35.92 177.782 35.92 177.782C35.92 177.782 37.8352 170.517 33.7464 169.939C26.3592 168.89 25.4624 205.644 25.4624 209.155C25.4624 211.587 21.5864 211.314 21.7232 208.699C21.86 206.085 25.888 174.438 18.3792 173.314C12.6184 172.447 17.3608 203.546 12.892 209.794C8.4232 216.041 11.7064 185.778 6.1584 185.17C4.1064 184.942 2.5256 185.063 3.1184 202.604C3.4528 212.043 7.6784 226.149 6.9184 244.358L6.736 249.07C2.3736 283.134 -17.28 461.84 50.3752 456.991C50.3752 456.991 101.706 449.862 130.236 356.443L77.0968 323.763Z" fill="#FFBE9D"/>
<path d="M19.2 236.53C19.2 236.698 20.34 236.834 22.0272 237.716C24.3016 238.889 26.077 240.843 27.028 243.218L27.56 244.571L28.1528 243.249C29.0051 241.362 30.195 239.646 31.664 238.187C34.4941 235.308 38.1291 233.353 42.0912 232.578C45.1312 231.955 47.1072 232.305 47.1376 232.062C45.4754 231.448 43.675 231.312 41.9392 231.666C37.6751 232.219 33.7225 234.196 30.7216 237.275C29.1599 238.855 27.9117 240.717 27.0432 242.762H28.168C27.623 241.471 26.8281 240.3 25.8291 239.316C24.83 238.333 23.6464 237.557 22.3464 237.032C21.3779 236.534 20.2755 236.358 19.2 236.53Z" fill="#EB996E"/>
<path d="M385.687 345.97L414.43 400.113L440.681 450.607H381.325L344.541 374.805" fill="#FFBE9D"/>
<path d="M160.56 450.607C166.214 431.349 162.506 428.309 156.426 409.187L143.354 368.147L114.747 410.403L53.932 361.52L74.1024 316.026C111.783 230.633 172.902 236.698 172.902 236.698L250.787 221.832C250.787 221.832 300.613 217.272 332.867 246.547C343.386 256.093 391.159 342.094 391.159 342.094L332.457 383.226L318.062 358.678L314.08 392.042C310.949 410.282 311.146 433.492 318.062 450.607" fill="#455A64"/>
<path d="M153.781 265.76C153.781 265.973 140.967 268.8 125.083 272.068C109.199 275.336 96.2032 277.814 96.2032 277.601C96.2032 277.388 109.002 274.561 124.901 271.293C140.8 268.025 153.735 265.517 153.781 265.76Z" fill="#FAFAFA"/>
<path d="M325.039 241.166C325.039 241.394 312.469 243.902 296.858 246.775C281.248 249.648 268.571 251.822 268.526 251.594C268.48 251.366 281.111 248.873 296.722 246C312.332 243.127 325.009 240.954 325.039 241.166Z" fill="#FAFAFA"/>
<path d="M349.04 268.967C349.04 269.18 329.478 273.527 305.249 278.802C281.02 284.076 261.351 288.074 261.306 287.922C261.26 287.77 280.853 283.362 305.082 278.087C329.31 272.813 348.934 268.8 349.04 268.967Z" fill="#FAFAFA"/>
<path d="M373.041 311.816L372.22 311.983L369.818 312.409L360.531 313.929L326.377 319.522L213.623 337.61C169.543 344.587 129.674 350.804 100.763 355.151C86.3232 357.34 74.6192 359.042 66.5176 360.167C62.4744 360.714 59.328 361.125 57.1848 361.353C56.117 361.585 55.0191 361.647 53.932 361.535C55.0189 361.518 56.1022 361.406 57.1696 361.201L66.472 359.863L100.687 354.604L213.502 336.82L326.24 318.96L360.44 313.61L369.742 312.196L372.174 311.846L373.041 311.816Z" fill="#FAFAFA"/>
<path d="M315.691 378.362C315.691 378.574 279.485 383.484 234.782 389.306C190.078 395.127 153.811 399.672 153.781 399.459C153.75 399.246 189.972 394.352 234.69 388.515C279.409 382.678 315.6 378.149 315.691 378.362Z" fill="#FAFAFA"/>
<path d="M308.775 435.27C308.775 435.498 276.369 435.468 236.423 435.27C196.478 435.073 164.056 434.662 164.056 434.434C164.056 434.206 196.447 434.237 236.423 434.434C276.399 434.632 308.775 435.058 308.775 435.27Z" fill="#FAFAFA"/>
<path d="M176.049 300.933C175.708 301.044 175.356 301.121 175 301.161L171.96 301.662L160.864 303.426C151.486 304.946 138.55 307.089 124.384 309.749C110.218 312.409 97.2976 315.069 88.0104 317.06L76.96 319.416L73.92 320.039C73.5726 320.134 73.2157 320.19 72.856 320.206C73.1839 320.066 73.5251 319.959 73.8744 319.887L76.96 319.112C79.544 318.474 83.2832 317.592 87.904 316.513C97.1608 314.37 109.99 311.634 124.247 308.913C138.505 306.192 151.455 304.186 160.849 302.833C165.561 302.149 169.361 301.632 172.006 301.313L175.046 300.963C175.378 300.92 175.714 300.91 176.049 300.933Z" fill="#FAFAFA"/>
<path d="M242.914 55.6504C241.044 78.1768 271.231 94.1672 268.541 116.602C267.796 122.834 264.558 129.614 267.857 134.964C271.809 141.394 281.43 140.041 288.453 142.822C297.102 146.242 301.525 156.654 300.218 165.85C298.91 175.046 292.952 182.996 285.945 189.122C274.883 198.793 261.055 204.734 246.425 206.1C239.646 206.708 232.562 206.222 226.513 203.06C220.463 199.898 215.675 193.803 215.645 186.994" fill="#263238"/>
<path d="M245.893 234.752C241.88 215.524 238.004 195.232 238.004 195.232C238.004 195.232 261.883 185.869 260.166 152.505C258.539 120.676 238.399 50.6648 238.399 50.6648C199.715 43.688 159.572 62.2928 140.207 96.2648L175.365 251.822C179.438 269.879 198.165 280.702 217.514 276.248C237.016 271.597 249.708 253.068 245.893 234.752Z" fill="#FFBE9D"/>
<path d="M241.014 108.136C241.248 109.213 241.054 110.339 240.472 111.275C239.89 112.212 238.967 112.885 237.898 113.152C237.38 113.307 236.836 113.356 236.299 113.297C235.761 113.237 235.242 113.071 234.77 112.808C234.298 112.544 233.883 112.188 233.551 111.762C233.219 111.336 232.976 110.847 232.836 110.325C232.594 109.256 232.776 108.135 233.343 107.197C233.91 106.259 234.817 105.577 235.876 105.294C236.4 105.13 236.951 105.074 237.497 105.129C238.044 105.184 238.573 105.35 239.053 105.616C239.533 105.881 239.955 106.242 240.292 106.675C240.629 107.108 240.874 107.605 241.014 108.136Z" fill="#263238"/>
<path d="M245.68 103.956C245.285 104.61 241.652 102.953 237.198 103.956C232.745 104.959 229.948 107.832 229.355 107.391C229.066 107.194 229.355 106.114 230.586 104.777C232.213 103.038 234.336 101.844 236.666 101.357C238.979 100.857 241.391 101.107 243.552 102.071C245.163 102.786 245.832 103.667 245.68 103.956Z" fill="#263238"/>
<path d="M195.52 118.578C195.762 119.647 195.58 120.768 195.013 121.706C194.446 122.644 193.539 123.326 192.48 123.61C191.961 123.762 191.417 123.809 190.88 123.748C190.342 123.686 189.822 123.519 189.351 123.254C188.879 122.989 188.466 122.633 188.134 122.206C187.802 121.779 187.559 121.29 187.418 120.767C187.177 119.7 187.359 118.581 187.926 117.646C188.493 116.71 189.401 116.031 190.458 115.751C190.976 115.597 191.52 115.547 192.057 115.607C192.595 115.666 193.115 115.832 193.586 116.096C194.058 116.359 194.473 116.715 194.805 117.141C195.137 117.568 195.38 118.056 195.52 118.578Z" fill="#263238"/>
<path d="M200.08 114.353C199.685 114.991 196.052 113.334 191.598 114.353C187.145 115.371 184.363 118.229 183.755 117.788C183.466 117.606 183.755 116.511 184.986 115.174C186.62 113.444 188.74 112.251 191.066 111.754C193.385 111.26 195.799 111.51 197.967 112.468C199.639 113.182 200.323 114.049 200.08 114.353Z" fill="#263238"/>
<path d="M223.762 143.157C223.686 142.898 226.361 141.834 230.723 140.314C231.833 139.95 232.866 139.509 232.897 138.688C232.726 137.49 232.196 136.372 231.377 135.481L226.178 127.531C218.882 116.177 213.35 106.753 213.821 106.464C214.292 106.175 220.554 115.143 227.835 126.482L232.912 134.508C233.907 135.737 234.444 137.274 234.432 138.855C234.352 139.29 234.173 139.702 233.91 140.057C233.646 140.413 233.305 140.704 232.912 140.907C232.32 141.213 231.692 141.443 231.042 141.591C226.634 142.792 223.838 143.4 223.762 143.157Z" fill="#263238"/>
<path d="M238.08 195.232C222.951 198.662 207.168 197.836 192.48 192.846C192.48 192.846 207.68 212.803 239.342 202.938L238.08 195.232Z" fill="#EB996E"/>
<path d="M224.157 154.283C223.082 153.397 221.8 152.799 220.43 152.547C219.06 152.294 217.649 152.395 216.329 152.839C215.363 153.131 214.467 153.617 213.696 154.268C212.925 154.919 212.295 155.721 211.845 156.624C211.403 157.49 211.238 158.472 211.374 159.434C211.51 160.397 211.94 161.295 212.605 162.005C213.482 162.639 214.527 163 215.608 163.043C216.69 163.087 217.76 162.81 218.685 162.248C220.63 161.07 222.324 159.521 223.67 157.688C224.088 157.244 224.422 156.729 224.658 156.168C224.773 155.885 224.799 155.574 224.734 155.276C224.669 154.978 224.515 154.706 224.294 154.496" fill="#FE3B5D"/>
<path d="M211.298 149.009C212.027 148.811 213.061 153.645 217.925 156.214C222.789 158.782 227.82 157.141 228.002 157.734C228.139 158.022 227.06 158.919 224.886 159.436C222.062 160.08 219.1 159.703 216.526 158.372C214.057 157.105 212.181 154.923 211.298 152.292C210.72 150.362 210.963 149.054 211.298 149.009Z" fill="#263238"/>
<path d="M159.618 129.264C155.998 129.256 152.447 130.251 149.358 132.137C146.283 134.057 144.097 137.118 143.278 140.649C142.636 144.235 143.386 147.932 145.375 150.985C147.362 154.008 150 156.548 153.097 158.418C155.22 159.914 157.669 160.883 160.241 161.245C161.528 161.417 162.838 161.267 164.053 160.808C165.268 160.349 166.35 159.596 167.202 158.615" fill="#FFBE9D"/>
<path d="M162.08 150.605C162.506 150.605 161.442 153.052 158.113 152.87C156.311 152.645 154.672 151.716 153.553 150.286C152.231 148.708 151.234 146.884 150.619 144.92C149.911 142.84 149.97 140.576 150.786 138.536C151.125 137.667 151.658 136.887 152.346 136.257C153.034 135.627 153.858 135.164 154.754 134.903C157.991 134.143 159.466 136.18 159.116 136.317C158.766 136.454 157.398 135.739 155.392 136.697C153.386 137.654 152.018 140.74 153.203 144.13C154.389 147.519 156.395 150.559 158.462 150.97C160.53 151.38 161.867 150.362 162.08 150.605Z" fill="#EB996E"/>
<path d="M228.96 43.536C231.308 48.1548 232.097 53.4096 231.209 58.5142C230.321 63.6187 227.804 68.2986 224.035 71.8536C216.314 78.8 205.126 79.788 195.155 82.6912C185.184 85.5944 174.498 92.936 174.954 103.318C175.228 109.61 179.697 115.66 178.086 121.74C176.216 128.869 167.111 131.909 164.542 138.81C160.423 149.906 175.502 159.892 174.833 171.702C174.438 178.71 168.51 184.425 167.856 191.462C166.914 201.403 176.672 211.967 171.246 220.342C167.081 226.787 157.383 225.86 150.27 223.063C143.156 220.266 135.374 216.284 128.245 219.081C123.958 220.753 120.934 224.583 117.118 227.167C113.634 229.532 109.527 230.81 105.316 230.839C101.106 230.869 96.9811 229.648 93.4643 227.333C89.9476 225.017 87.1969 221.71 85.5604 217.83C83.924 213.95 83.4753 209.672 84.2712 205.538C85.4264 199.458 89.1048 194.244 92.0688 188.818C95.0328 183.391 97.3888 177.053 95.6104 171.14C94.2272 166.58 90.6704 163.145 87.8432 159.345C85.016 155.545 82.812 150.544 84.636 146.182C87.828 138.506 100.064 139.174 104.502 132.152C110.582 122.5 96.4768 110.218 100.094 99.396C104.198 87.1448 125.934 89.3336 130.069 77.0824C131.589 72.6288 130.069 67.7192 130.479 63.0376C131.558 52.3976 142.791 45.4816 153.386 43.6424C163.98 41.8032 175.046 43.1712 185.442 40.4352C191.127 38.9152 196.447 36.2248 202.041 34.3552C207.634 32.4856 213.836 31.5584 219.369 33.6104C224.902 35.6624 229.325 41.4536 228.215 47.2904" fill="#263238"/>
<path d="M224.172 66.3664C227.248 71.6898 231.503 76.2384 236.609 79.6635C241.715 83.0886 247.537 85.2994 253.63 86.1264C253.432 77.9792 253.006 69.7712 250.802 61.9432C248.598 54.1152 244.464 46.5304 238.08 41.56C231.696 36.5896 222.667 34.5224 215.098 37.4864" fill="#263238"/>
<path d="M263.312 222.607C266.063 222.972 281.446 313.199 222.394 323.216C166.503 332.716 149.221 240.011 149.221 240.011C149.221 240.011 186.871 212.393 263.312 222.607Z" fill="#FFBE9D"/>
<path d="M229.477 99.0768C229.826 99.7304 232.866 98.7576 236.651 98.332C240.436 97.9064 243.598 98.1192 243.78 97.4048C243.962 96.6904 240.74 95.2312 236.347 95.748C231.954 96.2648 229.127 98.56 229.477 99.0768Z" fill="#263238"/>
<path d="M184.348 106.069C184.485 105.947 184.47 105.689 184.348 105.278V105.962C186.531 104.853 188.837 104.006 191.218 103.439C195.414 102.527 198.97 103.53 199.259 102.846C199.381 102.527 198.621 101.813 197.07 101.326C195.02 100.628 192.818 100.502 190.702 100.962C189.301 101.176 187.958 101.673 186.756 102.423C185.554 103.173 184.517 104.16 183.71 105.324L183.436 105.871L183.664 105.993C183.968 106.16 184.226 106.16 184.348 106.069Z" fill="#263238"/>
<path d="M158.842 103.439C155.396 103.481 151.951 103.263 148.537 102.786C145.099 102.575 141.684 102.092 138.322 101.342C141.769 101.3 145.214 101.518 148.628 101.995C152.064 102.218 155.479 102.701 158.842 103.439Z" fill="#FE3B5D"/>
<path d="M153.826 109.2C151.267 109.758 148.634 109.901 146.029 109.626C143.414 109.619 140.817 109.193 138.338 108.364C138.338 108.151 141.818 108.607 146.074 108.835C150.33 109.063 153.811 108.957 153.826 109.2Z" fill="#FE3B5D"/>
<path d="M229.462 61.9432C229.401 62.2689 229.298 62.5855 229.158 62.8856C228.786 63.7642 228.273 64.5756 227.638 65.2872C225.1 67.7647 221.754 69.2435 218.214 69.452C215.812 69.7205 213.385 69.6797 210.994 69.3304C208.425 69.0112 205.704 68.54 202.846 68.3272C199.878 67.9897 196.872 68.3168 194.046 69.2848C191.104 70.5545 188.562 72.5979 186.689 75.1976C184.606 77.7816 182.858 80.548 180.806 82.9952C179.795 84.2044 178.67 85.314 177.447 86.3088C176.245 87.2372 174.927 88.0037 173.526 88.5888C170.928 89.5546 168.239 90.2523 165.5 90.6712C163.153 91.0305 160.839 91.5847 158.584 92.328C155.316 93.3537 152.52 95.509 150.695 98.408C150.132 99.5285 149.786 100.746 149.677 101.995C149.633 101.667 149.633 101.335 149.677 101.007C149.773 100.057 150.036 99.1308 150.452 98.2712C152.211 95.1824 155.047 92.8501 158.417 91.72C160.694 90.9326 163.032 90.3377 165.409 89.9416C168.094 89.5114 170.728 88.8033 173.267 87.8288C176.009 86.6379 178.408 84.7772 180.244 82.4176C182.25 80.0312 183.983 77.2496 186.096 74.62C188.075 71.941 190.736 69.8415 193.802 68.54C196.734 67.5481 199.849 67.221 202.922 67.5824C208.744 68.0992 213.836 69.4824 218.122 68.8896C221.576 68.7722 224.876 67.4369 227.44 65.12C228.275 64.1724 228.957 63.1007 229.462 61.9432Z" fill="#455A64"/>
<path d="M102.618 228.55C103.076 228.454 103.528 228.327 103.97 228.17C105.195 227.608 106.162 226.604 106.676 225.358C107.52 223.391 107.564 221.171 106.798 219.172C106.068 216.801 104.654 214.278 103.575 211.268C100.802 204.254 100.049 196.603 101.402 189.182C102.326 184.816 104.228 180.715 106.965 177.19C108.434 175.339 110.152 173.702 112.072 172.326C114.069 170.963 116.223 169.846 118.486 168.997C120.7 168.207 122.758 167.034 124.566 165.531C125.369 164.766 125.994 163.835 126.398 162.804C126.802 161.772 126.976 160.664 126.907 159.558C126.649 155.134 124.232 151.076 124.308 146.698C124.35 144.572 124.903 142.487 125.919 140.618C126.863 138.903 128.028 137.318 129.385 135.906C131.834 133.441 134.444 131.141 137.198 129.021C142.062 125.008 145.086 120.646 145.892 117.21C146.306 115.43 146.306 113.579 145.892 111.799C145.952 111.908 145.993 112.026 146.014 112.149C146.014 112.377 146.181 112.726 146.272 113.182C146.493 114.546 146.447 115.94 146.135 117.286C145.615 119.409 144.68 121.408 143.384 123.169C141.692 125.493 139.722 127.601 137.517 129.446C134.81 131.582 132.241 133.887 129.826 136.347C128.52 137.718 127.396 139.25 126.482 140.907C125.531 142.666 125.011 144.624 124.962 146.622C125.039 148.736 125.434 150.827 126.132 152.824C126.896 154.966 127.407 157.19 127.652 159.451C127.732 160.669 127.544 161.89 127.1 163.028C126.656 164.165 125.968 165.191 125.083 166.033C123.212 167.603 121.076 168.828 118.775 169.65C116.567 170.53 114.47 171.668 112.528 173.04C110.666 174.374 108.999 175.96 107.573 177.752C104.9 181.178 103.035 185.163 102.116 189.41C100.767 196.7 101.45 204.22 104.092 211.146C105.126 214.186 106.509 216.664 107.223 219.126C107.569 220.269 107.733 221.459 107.71 222.653C107.663 223.666 107.41 224.659 106.965 225.571C106.389 226.857 105.337 227.87 104.031 228.398C103.579 228.56 103.094 228.612 102.618 228.55Z" fill="#455A64"/>
</svg>
