<svg width="150" height="150" viewBox="0 0 150 150" fill="none" xmlns="http://www.w3.org/2000/svg">
<circle cx="75" cy="75" r="75" fill="white"/>
<path d="M127.807 37.928H42.5617C41.0918 37.928 39.9001 39.1196 39.9001 40.5896V95.6456C39.9001 97.1156 41.0918 98.3072 42.5617 98.3072H127.807C129.277 98.3072 130.469 97.1156 130.469 95.6456V40.5896C130.469 39.1196 129.277 37.928 127.807 37.928Z" fill="#F5F5F5"/>
<path d="M126.087 39.4016H44.0378C42.5679 39.4016 41.3762 40.5932 41.3762 42.0632V94.004C41.3762 95.474 42.5679 96.6656 44.0378 96.6656H126.087C127.557 96.6656 128.748 95.474 128.748 94.004V42.0632C128.748 40.5932 127.557 39.4016 126.087 39.4016Z" fill="#DECEF9"/>
<path d="M126.689 57.0296H42.6914V88.664H126.689V57.0296Z" fill="white"/>
<path d="M111.744 56.3072H26.4985C25.0286 56.3072 23.8369 57.4989 23.8369 58.9688V114.025C23.8369 115.495 25.0286 116.686 26.4985 116.686H111.744C113.214 116.686 114.406 115.495 114.406 114.025V58.9688C114.406 57.4989 113.214 56.3072 111.744 56.3072Z" fill="#F5F5F5"/>
<path d="M110.023 57.7832H27.9746C26.5046 57.7832 25.313 58.9748 25.313 60.4448V112.386C25.313 113.856 26.5046 115.047 27.9746 115.047H110.023C111.493 115.047 112.685 113.856 112.685 112.386V60.4448C112.685 58.9748 111.493 57.7832 110.023 57.7832Z" fill="#DECEF9"/>
<path d="M110.626 75.4088H26.6282V107.043H110.626V75.4088Z" fill="white"/>
<path d="M102.228 49.016C102.228 49.016 102.305 49.0376 102.449 49.0856C102.593 49.1336 102.807 49.2008 103.095 49.2728C103.933 49.4803 104.801 49.542 105.66 49.4552C106.279 49.3936 106.891 49.2755 107.489 49.1024C108.203 48.9056 108.897 48.6404 109.56 48.3104C111.174 47.49 112.595 46.3357 113.729 44.924C114.06 44.5359 114.311 44.0865 114.468 43.6016C114.632 43.0956 114.589 42.5455 114.351 42.0704C114.21 41.8363 114.014 41.6401 113.78 41.4987C113.546 41.3573 113.282 41.2751 113.009 41.2592C112.435 41.2079 111.859 41.3193 111.346 41.5808C111.074 41.71 110.793 41.819 110.506 41.9072C110.204 41.9961 109.883 41.9961 109.582 41.9072C109.423 41.8672 109.277 41.7884 109.156 41.6778C109.035 41.5672 108.944 41.4283 108.891 41.2736C108.848 41.1145 108.841 40.9483 108.868 40.7861C108.895 40.6238 108.957 40.4693 109.049 40.3328C109.225 40.0578 109.474 39.8375 109.769 39.6968C110.061 39.557 110.363 39.4375 110.671 39.3392C111.288 39.1206 111.885 38.8534 112.459 38.54C113.049 38.219 113.611 37.8498 114.139 37.436C114.412 37.2365 114.659 37.0035 114.874 36.7424C115.094 36.4898 115.22 36.1681 115.229 35.8328C115.216 35.6678 115.161 35.5088 115.069 35.3713C114.977 35.2338 114.851 35.1224 114.703 35.048C114.395 34.894 114.055 34.8119 113.71 34.808C113.349 34.8033 112.99 34.7656 112.637 34.6952C112.45 34.6572 112.274 34.5751 112.125 34.4557C111.976 34.3363 111.858 34.1831 111.78 34.0088C111.744 33.915 111.731 33.8142 111.74 33.7143C111.75 33.6144 111.783 33.5181 111.835 33.4328C111.945 33.2766 112.086 33.1443 112.248 33.044C112.546 32.8376 112.838 32.6192 113.124 32.3888C113.698 31.9238 114.235 31.415 114.73 30.8672C115.25 30.3322 115.684 29.7192 116.016 29.0504C116.171 28.7124 116.237 28.341 116.211 27.9704C116.178 27.5992 116.02 27.2502 115.762 26.9816C115.502 26.7151 115.178 26.5197 114.82 26.4143C114.463 26.3088 114.085 26.2967 113.722 26.3792C112.999 26.5591 112.35 26.9601 111.867 27.5264C110.871 28.6376 110.407 30.08 109.596 31.2896C109.397 31.5944 109.17 31.8804 108.919 32.144C108.797 32.2824 108.654 32.402 108.497 32.4992C108.414 32.5546 108.318 32.5874 108.219 32.5941C108.119 32.6008 108.02 32.5814 107.931 32.5376C107.848 32.4838 107.777 32.4133 107.724 32.3307C107.67 32.248 107.634 32.155 107.619 32.0576C107.586 31.8786 107.579 31.6961 107.597 31.5152C107.615 31.3473 107.604 31.1775 107.563 31.0136C107.517 30.8549 107.429 30.7115 107.309 30.5984C107.187 30.4869 107.044 30.4006 106.888 30.3446C106.732 30.2886 106.567 30.2639 106.402 30.272C106.071 30.3017 105.761 30.446 105.526 30.68C105.292 30.9114 105.113 31.1917 105 31.5008C104.886 31.8095 104.815 32.1326 104.789 32.4608C104.731 33.116 104.758 33.776 104.748 34.4216C104.739 35.0672 104.748 35.7104 104.748 36.3416C104.748 36.9728 104.801 37.604 104.592 38.2064C104.544 38.3588 104.463 38.4988 104.354 38.6165C104.246 38.7343 104.114 38.8269 103.966 38.888C103.668 38.9842 103.346 38.9723 103.056 38.8544C102.504 38.6388 102.013 38.29 101.628 37.8392C101.442 37.6228 101.281 37.3861 101.148 37.1336C101.027 36.8862 100.891 36.6458 100.743 36.4136C100.603 36.1891 100.39 36.0196 100.14 35.9336C99.8913 35.8677 99.627 35.8941 99.3962 36.008C99.1674 36.1178 98.9694 36.2827 98.8202 36.488C98.6771 36.6918 98.5804 36.9244 98.537 37.1696C98.4749 37.6543 98.4461 38.1426 98.4506 38.6312C98.4314 39.1112 98.429 39.572 98.4362 40.0256C98.4508 40.8764 98.527 41.725 98.6642 42.5648C98.7782 43.2992 98.9573 44.0221 99.1994 44.7248C99.3002 45.0512 99.4394 45.3464 99.557 45.6368C99.6746 45.9272 99.8162 46.1864 99.9602 46.4264C100.384 47.1781 100.923 47.8584 101.559 48.4424C101.652 48.5333 101.75 48.6183 101.854 48.6968L102.075 48.8744L102.25 49.0208C102.25 49.0208 102.187 48.9776 102.067 48.884L101.842 48.7112C101.737 48.6377 101.637 48.5576 101.542 48.4712C100.897 47.8915 100.35 47.2125 99.9194 46.46C99.773 46.22 99.6482 45.9488 99.5066 45.668C99.365 45.3872 99.245 45.0824 99.1442 44.7536C98.8973 44.0515 98.7141 43.3286 98.597 42.5936C98.4543 41.7503 98.3741 40.8975 98.357 40.0424C98.357 39.5888 98.357 39.1232 98.357 38.6432C98.3511 38.1506 98.3791 37.6583 98.441 37.1696C98.4869 36.9113 98.5875 36.6658 98.7362 36.4496C98.8947 36.2317 99.105 36.0569 99.3482 35.9408C99.5991 35.8169 99.8864 35.7879 100.157 35.8592C100.427 35.9499 100.658 36.1303 100.812 36.3704C100.962 36.6029 101.1 36.8432 101.225 37.0904C101.358 37.3367 101.519 37.5669 101.705 37.7768C102.08 38.2125 102.555 38.5502 103.09 38.7608C103.358 38.8678 103.655 38.8788 103.93 38.792C104.063 38.7361 104.182 38.6516 104.279 38.5447C104.376 38.4377 104.449 38.3108 104.491 38.1728C104.688 37.6064 104.623 36.9728 104.638 36.344C104.652 35.7152 104.638 35.0744 104.638 34.424C104.638 33.7736 104.619 33.1208 104.676 32.4512C104.703 32.1115 104.776 31.7771 104.895 31.4576C105.017 31.1317 105.21 30.8374 105.461 30.596C105.72 30.3415 106.059 30.186 106.421 30.1568C106.782 30.1431 107.133 30.2715 107.4 30.5144C107.539 30.6444 107.639 30.8107 107.688 30.9944C107.732 31.1709 107.745 31.3535 107.727 31.5344C107.71 31.7049 107.716 31.8768 107.746 32.0456C107.759 32.1249 107.788 32.2006 107.831 32.2683C107.875 32.3359 107.931 32.3941 107.998 32.4392C108.069 32.4724 108.149 32.4864 108.227 32.4796C108.306 32.4729 108.382 32.4457 108.447 32.4008C108.594 32.3049 108.726 32.1886 108.84 32.0552C109.086 31.7964 109.307 31.5161 109.503 31.2176C110.302 30.0176 110.763 28.5776 111.78 27.4376C112.281 26.8524 112.952 26.438 113.7 26.252C114.085 26.1645 114.486 26.1775 114.864 26.2897C115.242 26.4019 115.585 26.6096 115.86 26.8928C116.137 27.1812 116.306 27.5556 116.34 27.9536C116.369 28.3447 116.299 28.7367 116.136 29.0936C115.8 29.7766 115.358 30.402 114.826 30.9464C114.325 31.4977 113.784 32.0103 113.206 32.48C112.92 32.72 112.623 32.9312 112.323 33.14C112.174 33.2318 112.046 33.3516 111.943 33.4928C111.899 33.5636 111.871 33.6441 111.864 33.7276C111.856 33.811 111.869 33.8951 111.9 33.9728C111.974 34.1272 112.083 34.2621 112.218 34.3663C112.354 34.4706 112.512 34.5414 112.68 34.5728C113.027 34.6413 113.378 34.6782 113.731 34.6832C114.096 34.6906 114.454 34.7809 114.778 34.9472C114.941 35.0348 115.081 35.1588 115.188 35.3096C115.293 35.464 115.352 35.6442 115.361 35.8304C115.355 36.1941 115.22 36.5438 114.979 36.8168C114.761 37.0879 114.508 37.3298 114.228 37.5368C113.694 37.9523 113.128 38.3239 112.534 38.648C111.955 38.964 111.351 39.2328 110.729 39.452C110.424 39.5482 110.127 39.6652 109.839 39.8024C109.558 39.9323 109.32 40.1386 109.152 40.3976C109.068 40.5209 109.012 40.6607 108.986 40.8076C108.96 40.9545 108.966 41.1052 109.003 41.2496C109.052 41.3875 109.134 41.5112 109.242 41.6097C109.35 41.7081 109.481 41.7782 109.623 41.8136C109.905 41.8963 110.206 41.8963 110.489 41.8136C110.772 41.7285 111.048 41.6218 111.315 41.4944C111.845 41.2285 112.439 41.1155 113.031 41.168C113.32 41.196 113.599 41.2852 113.851 41.4296C114.1 41.574 114.305 41.783 114.444 42.0344C114.695 42.5318 114.739 43.108 114.567 43.6376C114.405 44.1334 114.147 44.5925 113.808 44.9888C112.663 46.4065 111.229 47.5635 109.601 48.3824C108.933 48.7114 108.234 48.9751 107.515 49.1696C106.913 49.3411 106.296 49.456 105.672 49.5128C104.808 49.5942 103.937 49.5243 103.097 49.3064C102.879 49.2519 102.664 49.1854 102.454 49.1072C102.3 49.0472 102.228 49.016 102.228 49.016Z" fill="#263238"/>
<path d="M115.32 26.8064C115.32 26.8064 115.301 26.8304 115.258 26.8688C115.214 26.9072 115.145 26.9648 115.066 27.0368C114.895 27.1832 114.646 27.3992 114.331 27.6872C113.442 28.4983 112.615 29.3752 111.857 30.3104C111.377 30.9008 110.87 31.568 110.345 32.2952C109.819 33.0224 109.265 33.8072 108.71 34.652C108.124 35.5304 107.588 36.4406 107.102 37.3784C106.85 37.8584 106.622 38.3768 106.394 38.8976C106.166 39.4184 105.934 39.9488 105.698 40.484C104.804 42.4891 104.022 44.5427 103.356 46.6352C102.819 48.3473 102.444 50.1063 102.238 51.8888C102.102 53.0918 102.07 54.3044 102.144 55.5128C102.173 55.94 102.202 56.2712 102.23 56.4968C102.242 56.6024 102.25 56.6888 102.257 56.7512C102.259 56.7808 102.259 56.8104 102.257 56.84C102.247 56.8121 102.241 56.7831 102.238 56.7536C102.238 56.6912 102.216 56.6048 102.199 56.4992C102.163 56.276 102.127 55.9448 102.089 55.5152C101.998 54.3047 102.018 53.0886 102.146 51.8816C102.343 50.0904 102.711 48.3223 103.246 46.6016C103.906 44.5023 104.686 42.4429 105.583 40.4336L106.279 38.8472C106.519 38.3288 106.738 37.8128 106.999 37.3232C107.489 36.3822 108.03 35.4689 108.619 34.5872C109.178 33.7424 109.738 32.9624 110.266 32.2352C110.794 31.508 111.305 30.8408 111.792 30.2528C112.558 29.3203 113.398 28.4504 114.302 27.6512C114.622 27.368 114.876 27.1568 115.049 27.0152L115.25 26.8568L115.32 26.8064Z" fill="#263238"/>
<path d="M107.03 37.3208C107.001 37.2311 106.981 37.1386 106.97 37.0448C106.939 36.8672 106.901 36.6104 106.858 36.2888C106.774 35.6504 106.687 34.7624 106.594 33.7856C106.5 32.8088 106.404 31.9208 106.308 31.2848C106.262 30.968 106.222 30.7088 106.193 30.5312C106.172 30.4398 106.161 30.3465 106.159 30.2528C106.195 30.34 106.222 30.431 106.238 30.524C106.282 30.6968 106.334 30.9536 106.392 31.2728C106.507 31.9064 106.62 32.792 106.711 33.7736C106.802 34.7552 106.879 35.612 106.951 36.2792C106.98 36.5816 107.006 36.836 107.026 37.04C107.037 37.1332 107.038 37.2273 107.03 37.3208Z" fill="#263238"/>
<path d="M115.294 35.8544C115.186 35.8783 115.076 35.8912 114.965 35.8928C114.751 35.9096 114.447 35.9312 114.067 35.972C113.311 36.0464 112.27 36.1856 111.13 36.3896C109.99 36.5936 108.97 36.8264 108.226 37.016C107.856 37.1072 107.559 37.1888 107.352 37.244C107.248 37.2798 107.14 37.3055 107.031 37.3208C107.129 37.2698 107.233 37.2288 107.34 37.1984C107.542 37.1312 107.837 37.0352 108.204 36.9344C108.924 36.7232 109.963 36.4784 111.108 36.272C112.085 36.0938 113.07 35.9656 114.06 35.888C114.439 35.8592 114.749 35.8472 114.963 35.8448C115.073 35.8393 115.184 35.8425 115.294 35.8544Z" fill="#263238"/>
<path d="M103.351 46.4528C103.329 46.4212 103.311 46.3874 103.296 46.352C103.26 46.2704 103.215 46.172 103.159 46.052C103.039 45.7904 102.876 45.4088 102.679 44.9336C102.288 43.9856 101.794 42.6584 101.266 41.1872C100.738 39.716 100.253 38.384 99.8858 37.4288L99.4442 36.2984C99.3962 36.176 99.3578 36.0728 99.3266 35.9888C99.3091 35.9542 99.2977 35.9168 99.293 35.8784C99.3155 35.9104 99.334 35.9451 99.3482 35.9816C99.3866 36.0608 99.4322 36.1592 99.4874 36.2792C99.605 36.5408 99.7682 36.9224 99.9674 37.3976C100.356 38.3576 100.853 39.6728 101.381 41.1464C101.909 42.62 102.391 43.9472 102.761 44.9024L103.2 46.04L103.318 46.3496C103.334 46.3819 103.346 46.4168 103.351 46.4528Z" fill="#263238"/>
<path d="M114.346 43.0232L114.238 43.0664L113.916 43.1696L112.74 43.5392C111.747 43.8512 110.379 44.2976 108.867 44.7944C107.355 45.2912 105.987 45.7256 104.981 46.016C104.482 46.1624 104.076 46.2776 103.793 46.3496L103.469 46.4312C103.431 46.4449 103.391 46.4522 103.351 46.4528C103.386 46.4335 103.423 46.4189 103.462 46.4096L103.781 46.304L104.957 45.9344C105.953 45.6224 107.321 45.176 108.831 44.6816C110.34 44.1872 111.711 43.7504 112.716 43.4576C113.215 43.3112 113.623 43.1984 113.916 43.124L114.243 43.0424C114.276 43.0313 114.311 43.0248 114.346 43.0232Z" fill="#263238"/>
<path d="M96.4176 34.3736C96.779 34.403 97.1308 34.5049 97.452 34.6731C97.7732 34.8414 98.0572 35.0725 98.2872 35.3528C98.7453 35.9167 99.0672 36.5787 99.228 37.2872C99.5784 38.6432 99.3432 40.2368 98.9448 41.5784C97.4856 41.0432 96.5976 39.4736 96.1944 38.6504C95.5608 37.3472 95.2056 34.6088 96.4176 34.3736Z" fill="#9E00FF"/>
<path d="M101.038 43.2344C100.821 42.8918 100.699 42.4981 100.683 42.0931C100.668 41.6881 100.759 41.2862 100.949 40.928C101.145 40.5737 101.41 40.262 101.729 40.0111C102.047 39.7602 102.411 39.575 102.802 39.4664C102.975 39.3971 103.162 39.3665 103.348 39.3769C103.535 39.3872 103.717 39.4383 103.882 39.5264C104.021 39.6334 104.129 39.7758 104.194 39.9388C104.26 40.1017 104.28 40.2792 104.254 40.4528C104.196 40.7989 104.048 41.1235 103.824 41.3936C103.104 42.3536 102.233 43.1456 101.038 43.2344Z" fill="#9E00FF"/>
<path d="M101.16 47.7536C101.13 47.6622 101.108 47.5682 101.095 47.4728C101.059 47.2712 101.011 47.012 100.954 46.7C100.768 45.8507 100.721 44.9771 100.814 44.1128C100.921 43.2394 101.26 42.4106 101.796 41.7128C101.959 41.5051 102.147 41.3181 102.355 41.156C102.411 41.1114 102.47 41.0697 102.53 41.0312C102.552 41.0174 102.575 41.0069 102.6 41C102.327 41.2284 102.078 41.4832 101.856 41.7608C101.35 42.4557 101.028 43.2672 100.92 44.12C100.829 44.975 100.865 45.8389 101.028 46.6832C101.078 47.0096 101.117 47.276 101.141 47.4584C101.156 47.556 101.163 47.6548 101.16 47.7536Z" fill="#263238"/>
<path d="M96.8738 36.44C96.8963 36.4749 96.9156 36.5119 96.9314 36.5504C96.9698 36.6344 97.0178 36.7424 97.0802 36.8768C97.205 37.1624 97.385 37.5776 97.601 38.0912C98.033 39.1184 98.609 40.5464 99.2114 42.1376C99.8138 43.7288 100.325 45.1832 100.68 46.2392C100.858 46.7672 100.999 47.1992 101.093 47.4944L101.196 47.8376C101.211 47.8772 101.221 47.9182 101.227 47.96C101.208 47.9228 101.191 47.8843 101.177 47.8448C101.146 47.756 101.105 47.6456 101.055 47.5064C100.947 47.2016 100.795 46.7864 100.613 46.2632C100.239 45.212 99.7178 43.7648 99.1154 42.1832C98.513 40.6016 97.949 39.1616 97.5338 38.1272C97.3298 37.6184 97.1642 37.2032 97.0418 36.9032L96.9122 36.5672C96.8935 36.5268 96.8806 36.484 96.8738 36.44Z" fill="#263238"/>
<path d="M99.4489 44.7512C99.0162 44.0131 98.4139 43.3887 97.6918 42.9296C96.9698 42.4705 96.1489 42.19 95.2969 42.1112C94.8625 42.0752 94.3369 42.1448 94.1473 42.5312C93.9577 42.9176 94.2049 43.3808 94.4953 43.7048C95.1171 44.3659 95.9207 44.8281 96.8049 45.0331C97.689 45.2381 98.614 45.1768 99.4633 44.8568" fill="#9E00FF"/>
<path d="M95.9448 43.2848C96.035 43.2758 96.1259 43.2758 96.216 43.2848C96.3215 43.2922 96.4265 43.3058 96.5304 43.3256C96.6528 43.3496 96.7944 43.364 96.9456 43.4072C97.1119 43.4453 97.2761 43.4917 97.4376 43.5464C97.6238 43.6083 97.8065 43.6804 97.9848 43.7624C98.8103 44.1322 99.5323 44.6992 100.087 45.4136C100.208 45.567 100.319 45.7272 100.421 45.8936C100.509 46.0388 100.589 46.1886 100.661 46.3424C100.724 46.4682 100.78 46.5971 100.829 46.7288C100.871 46.8262 100.906 46.9265 100.934 47.0288C100.966 47.1141 100.989 47.2026 101.002 47.2928C100.98 47.2928 100.879 46.9256 100.596 46.3736C100.519 46.2244 100.434 46.0794 100.342 45.9392C100.239 45.7731 100.126 45.6128 100.006 45.4592C99.7279 45.1146 99.4132 44.8016 99.0672 44.5256C98.7168 44.2559 98.3387 44.0242 97.9392 43.8344C97.7644 43.7514 97.5849 43.6785 97.4016 43.616C97.2447 43.5564 97.0844 43.5059 96.9216 43.4648C96.3288 43.3304 95.9424 43.3064 95.9448 43.2848Z" fill="#263238"/>
<path d="M121.022 46.568H35.7768C34.3069 46.568 33.1152 47.7596 33.1152 49.2296V104.286C33.1152 105.756 34.3069 106.947 35.7768 106.947H121.022C122.492 106.947 123.684 105.756 123.684 104.286V49.2296C123.684 47.7596 122.492 46.568 121.022 46.568Z" fill="#F5F5F5"/>
<path d="M119.302 48.044H37.2529C35.7829 48.044 34.5913 49.2356 34.5913 50.7056V102.646C34.5913 104.116 35.7829 105.308 37.2529 105.308H119.302C120.772 105.308 121.963 104.116 121.963 102.646V50.7056C121.963 49.2356 120.772 48.044 119.302 48.044Z" fill="#9E00FF"/>
<path d="M119.904 65.672H35.9065V97.3064H119.904V65.672Z" fill="white"/>
<path d="M80.6951 54.8216V60.7424H79.3199V58.316H76.6343V60.7424H75.2639V54.8216H76.6343V57.1568H79.3199V54.8216H80.6951Z" fill="white"/>
<path d="M86.6856 59.6432V60.7424H82.1016V54.8216H86.5752V55.9208H83.4552V57.2072H86.2032V58.28H83.4624V59.6504L86.6856 59.6432Z" fill="white"/>
<path d="M87.7776 54.8216H89.16V59.6216H92.1288V60.7376H87.7776V54.8216Z" fill="white"/>
<path d="M92.8872 54.8216H94.2576V59.6216H97.2288V60.7376H92.8872V54.8216Z" fill="white"/>
<path d="M97.5239 57.7832C97.5239 56.0216 98.8943 54.7208 100.764 54.7208C102.634 54.7208 104.004 56.0144 104.004 57.7832C104.004 59.552 102.626 60.8456 100.764 60.8456C98.9015 60.8456 97.5239 59.5424 97.5239 57.7832ZM102.617 57.7832C102.609 57.4186 102.493 57.0645 102.285 56.7652C102.076 56.4659 101.784 56.2348 101.445 56.1008C101.106 55.9668 100.735 55.9359 100.378 56.0119C100.021 56.0879 99.6951 56.2675 99.4401 56.5282C99.185 56.7889 99.0126 57.119 98.9443 57.4773C98.8761 57.8355 98.9151 58.2059 99.0564 58.5421C99.1978 58.8783 99.4352 59.1653 99.7389 59.3672C100.043 59.569 100.399 59.6767 100.764 59.6768C101.013 59.6834 101.26 59.6385 101.49 59.5452C101.721 59.4518 101.929 59.3119 102.103 59.1341C102.277 58.9564 102.413 58.7447 102.501 58.5122C102.589 58.2798 102.629 58.0316 102.617 57.7832Z" fill="white"/>
<path d="M32.5416 77.2784L28.4616 84.7856L28.7976 66.5576C28.8743 65.3997 29.2651 64.2845 29.928 63.332C30.2091 62.9045 30.5384 62.5107 30.9096 62.1584C31.3896 61.7528 32.0304 61.2392 32.4696 61.0664C33.0144 60.8504 33.0312 60.0944 32.5248 59.9624C32.0184 59.8304 30.5016 60.3872 29.1816 61.7408C27.8616 63.0944 28.1592 60.1688 28.2504 59.1008C28.3416 58.0328 28.464 54.7208 28.1568 54.4424C27.708 54.032 27.1728 54.4424 27.108 55.5176C27.0432 56.5928 26.628 59.7776 26.0592 59.7176C25.4904 59.6576 26.04 54.2288 26.04 54.2288C26.04 54.2288 26.3424 53.0816 25.6968 52.9904C24.5304 52.8248 24.3888 58.628 24.3888 59.1824C24.3888 59.5664 23.7768 59.5232 23.7984 59.1104C23.82 58.6976 24.456 53.7008 23.2704 53.5232C22.3608 53.3864 23.1096 58.2968 22.404 59.2832C21.6984 60.2696 22.2168 55.4912 21.3408 55.3952C21.0168 55.3592 20.7672 55.3784 20.8608 58.148C20.9136 59.6384 21.5808 61.8656 21.4608 64.7408L21.432 65.4848C20.7432 70.8632 17.64 99.08 28.3224 98.3144C28.3224 98.3144 36.4272 97.1888 40.932 82.4384L32.5416 77.2784Z" fill="#FFBE9D"/>
<path d="M23.3999 63.5048C23.3999 63.5312 23.5799 63.5528 23.8463 63.692C24.2054 63.8772 24.4857 64.1857 24.6359 64.5608L24.7199 64.7744L24.8135 64.5656C24.9481 64.2677 25.136 63.9968 25.3679 63.7664C25.8148 63.3118 26.3887 63.0031 27.0143 62.8808C27.4943 62.7824 27.8063 62.8376 27.8111 62.7992C27.5486 62.7024 27.2644 62.6808 26.9903 62.7368C26.317 62.8241 25.6929 63.1362 25.2191 63.6224C24.9725 63.8719 24.7754 64.1659 24.6383 64.4888H24.8159C24.7298 64.2849 24.6043 64.1 24.4466 63.9447C24.2888 63.7894 24.102 63.6668 23.8967 63.584C23.7438 63.5053 23.5697 63.4776 23.3999 63.5048Z" fill="#EB996E"/>
<path d="M81.2663 80.7848L85.8047 89.3336L89.9495 97.3064H80.5775L74.7695 85.3376" fill="#FFBE9D"/>
<path d="M45.72 97.3064C46.6128 94.2656 46.0272 93.7856 45.0672 90.7664L43.0032 84.2864L38.4864 90.9584L28.884 83.24L32.0688 76.0568C38.0184 62.5736 47.6688 63.5312 47.6688 63.5312L59.9664 61.184C59.9664 61.184 67.8336 60.464 72.9264 65.0864C74.5872 66.5936 82.1304 80.1728 82.1304 80.1728L72.8616 86.6672L70.5888 82.7912L69.96 88.0592C69.4656 90.9392 69.4968 94.604 70.5888 97.3064" fill="#455A64"/>
<path d="M44.6495 68.12C44.6495 68.1536 42.6263 68.6 40.1183 69.116C37.6103 69.632 35.5583 70.0232 35.5583 69.9896C35.5583 69.956 37.5791 69.5096 40.0895 68.9936C42.5999 68.4776 44.6423 68.0816 44.6495 68.12Z" fill="#FAFAFA"/>
<path d="M71.6903 64.2368C71.6903 64.2728 69.7055 64.6688 67.2407 65.1224C64.7759 65.576 62.7743 65.9192 62.7671 65.8832C62.7599 65.8472 64.7543 65.4536 67.2191 65C69.6839 64.5464 71.6855 64.2032 71.6903 64.2368Z" fill="#FAFAFA"/>
<path d="M75.48 68.6264C75.48 68.66 72.3912 69.3464 68.5656 70.1792C64.74 71.012 61.6344 71.6432 61.6272 71.6192C61.62 71.5952 64.7136 70.8992 68.5392 70.0664C72.3648 69.2336 75.4632 68.6 75.48 68.6264Z" fill="#FAFAFA"/>
<path d="M79.2696 75.392L79.14 75.4184L78.7608 75.4856L77.2944 75.7256L71.9016 76.6088L54.0984 79.4648C47.1384 80.5664 40.8432 81.548 36.2784 82.2344C33.9984 82.58 32.1504 82.8488 30.8712 83.0264C30.2328 83.1128 29.736 83.1776 29.3976 83.2136C29.229 83.2503 29.0557 83.2601 28.884 83.2424C29.0556 83.2397 29.2267 83.222 29.3952 83.1896L30.864 82.9784L36.2664 82.148L54.0792 79.34L71.88 76.52L77.28 75.6752L78.7488 75.452L79.1328 75.3968L79.2696 75.392Z" fill="#FAFAFA"/>
<path d="M70.2145 85.8992C70.2145 85.9328 64.4977 86.708 57.4393 87.6272C50.3809 88.5464 44.6545 89.264 44.6497 89.2304C44.6449 89.1968 50.3641 88.424 57.4249 87.5024C64.4857 86.5808 70.2001 85.8656 70.2145 85.8992Z" fill="#FAFAFA"/>
<path d="M69.1224 94.8848C69.1224 94.9208 64.0056 94.916 57.6984 94.8848C51.3912 94.8536 46.272 94.7888 46.272 94.7528C46.272 94.7168 51.3864 94.7216 57.6984 94.7528C64.0104 94.784 69.1224 94.8512 69.1224 94.8848Z" fill="#FAFAFA"/>
<path d="M48.1657 73.6736C48.1118 73.6912 48.0564 73.7033 48.0001 73.7096L47.5201 73.7888L45.7681 74.0672C44.2873 74.3072 42.2449 74.6456 40.0081 75.0656C37.7713 75.4856 35.7313 75.9056 34.2649 76.22L32.5201 76.592L32.0401 76.6904C31.9852 76.7054 31.9289 76.7143 31.8721 76.7168C31.9239 76.6947 31.9777 76.6778 32.0329 76.6664L32.5201 76.544C32.9281 76.4432 33.5185 76.304 34.2481 76.1336C35.7097 75.7952 37.7353 75.3632 39.9865 74.9336C42.2377 74.504 44.2825 74.1872 45.7657 73.9736C46.5097 73.8656 47.1097 73.784 47.5273 73.7336L48.0073 73.6784C48.0598 73.6716 48.1128 73.67 48.1657 73.6736Z" fill="#FAFAFA"/>
<path d="M58.7231 34.9448C58.4279 38.5016 63.1943 41.0264 62.7695 44.5688C62.6519 45.5528 62.1407 46.6232 62.6615 47.468C63.2855 48.4832 64.8047 48.2696 65.9135 48.7088C67.2791 49.2488 67.9775 50.8928 67.7711 52.3448C67.5647 53.7968 66.6239 55.052 65.5175 56.0192C63.7708 57.5463 61.5875 58.4843 59.2775 58.7C58.2071 58.796 57.0887 58.7192 56.1335 58.22C55.1783 57.7208 54.4223 56.7584 54.4175 55.6832" fill="#263238"/>
<path d="M59.1935 63.224C58.5599 60.188 57.9479 56.984 57.9479 56.984C57.9479 56.984 61.7183 55.5056 61.4471 50.2376C61.1903 45.212 58.0103 34.1576 58.0103 34.1576C51.9023 33.056 45.5639 35.9936 42.5063 41.3576L48.0575 65.9192C48.7007 68.7704 51.6575 70.4792 54.7127 69.776C57.7919 69.0416 59.7959 66.116 59.1935 63.224Z" fill="#FFBE9D"/>
<path d="M58.4231 43.232C58.4601 43.4021 58.4295 43.5799 58.3376 43.7277C58.2458 43.8756 58.1 43.9818 57.9311 44.024C57.8494 44.0484 57.7635 44.0562 57.6787 44.0469C57.5939 44.0375 57.5118 44.0113 57.4373 43.9696C57.3627 43.928 57.2973 43.8719 57.2449 43.8046C57.1925 43.7372 57.154 43.6601 57.1319 43.5776C57.0938 43.4088 57.1225 43.2319 57.212 43.0838C57.3015 42.9357 57.4448 42.828 57.6119 42.7832C57.6946 42.7573 57.7817 42.7485 57.868 42.7572C57.9542 42.766 58.0377 42.7921 58.1136 42.8341C58.1894 42.876 58.2559 42.9329 58.3091 43.0013C58.3624 43.0697 58.4011 43.1482 58.4231 43.232Z" fill="#263238"/>
<path d="M59.1601 42.572C59.0977 42.6752 58.5241 42.4136 57.8209 42.572C57.1177 42.7304 56.6761 43.184 56.5825 43.1144C56.5369 43.0832 56.5825 42.9128 56.7769 42.7016C57.0337 42.4271 57.3689 42.2385 57.7369 42.1616C58.102 42.0826 58.4829 42.1222 58.8241 42.2744C59.0785 42.3872 59.1841 42.5264 59.1601 42.572Z" fill="#263238"/>
<path d="M51.2399 44.8808C51.2781 45.0496 51.2494 45.2266 51.1599 45.3747C51.0704 45.5228 50.9271 45.6305 50.7599 45.6752C50.678 45.6992 50.5921 45.7066 50.5072 45.697C50.4224 45.6873 50.3403 45.6608 50.2659 45.619C50.1914 45.5772 50.1261 45.5209 50.0737 45.4535C50.0213 45.3861 49.9829 45.3089 49.9607 45.2264C49.9227 45.0579 49.9514 44.8813 50.041 44.7336C50.1305 44.5859 50.2738 44.4786 50.4407 44.4344C50.5225 44.41 50.6084 44.4022 50.6932 44.4116C50.778 44.4209 50.8601 44.4472 50.9346 44.4888C51.0091 44.5304 51.0746 44.5865 51.127 44.6539C51.1794 44.7212 51.2178 44.7984 51.2399 44.8808Z" fill="#263238"/>
<path d="M51.9599 44.2136C51.8975 44.3144 51.3239 44.0528 50.6207 44.2136C49.9175 44.3744 49.4783 44.8256 49.3823 44.756C49.3367 44.7272 49.3823 44.5544 49.5767 44.3432C49.8345 44.07 50.1693 43.8817 50.5367 43.8032C50.9027 43.7252 51.284 43.7647 51.6263 43.916C51.8903 44.0288 51.9983 44.1656 51.9599 44.2136Z" fill="#263238"/>
<path d="M55.6993 48.7616C55.6873 48.7208 56.1097 48.5528 56.7985 48.3128C56.9737 48.2552 57.1369 48.1856 57.1417 48.056C57.1147 47.8668 57.031 47.6903 56.9017 47.5496L56.0809 46.2944C54.9289 44.5016 54.0553 43.0136 54.1297 42.968C54.2041 42.9224 55.1929 44.3384 56.3425 46.1288L57.1441 47.396C57.3012 47.5901 57.386 47.8327 57.3841 48.0824C57.3714 48.1511 57.3432 48.2161 57.3016 48.2722C57.26 48.3284 57.2061 48.3743 57.1441 48.4064C57.0506 48.4547 56.9514 48.491 56.8489 48.5144C56.1529 48.704 55.7113 48.8 55.6993 48.7616Z" fill="#263238"/>
<path d="M57.96 56.984C55.5713 57.5256 53.0792 57.3951 50.76 56.6072C50.76 56.6072 53.16 59.7584 58.1592 58.2008L57.96 56.984Z" fill="#EB996E"/>
<path d="M55.7615 50.5184C55.5918 50.3785 55.3893 50.2841 55.173 50.2442C54.9567 50.2043 54.7339 50.2202 54.5255 50.2904C54.3729 50.3365 54.2315 50.4133 54.1097 50.5161C53.988 50.6188 53.8885 50.7454 53.8175 50.888C53.7476 51.0248 53.7217 51.1797 53.7432 51.3318C53.7647 51.4838 53.8325 51.6255 53.9375 51.7376C54.076 51.8377 54.2409 51.8948 54.4117 51.9016C54.5824 51.9084 54.7514 51.8647 54.8975 51.776C55.2046 51.59 55.4721 51.3454 55.6847 51.056C55.7506 50.986 55.8034 50.9047 55.8407 50.816C55.8587 50.7713 55.8628 50.7222 55.8525 50.6751C55.8423 50.628 55.8181 50.5851 55.7831 50.552" fill="#9E00FF"/>
<path d="M53.7312 49.6856C53.8464 49.6544 54.0096 50.4176 54.7776 50.8232C55.5456 51.2288 56.34 50.9696 56.3688 51.0632C56.3904 51.1088 56.22 51.2504 55.8768 51.332C55.4308 51.4337 54.9631 51.3742 54.5568 51.164C54.1669 50.9639 53.8707 50.6194 53.7312 50.204C53.64 49.8992 53.6784 49.6928 53.7312 49.6856Z" fill="#263238"/>
<path d="M45.5711 46.568C44.9996 46.5668 44.4389 46.7238 43.9511 47.0216C43.4657 47.3247 43.1204 47.8081 42.9911 48.3656C42.8898 48.9319 43.0083 49.5156 43.3223 49.9976C43.636 50.475 44.0526 50.876 44.5415 51.1712C44.8767 51.4075 45.2634 51.5605 45.6695 51.6176C45.8728 51.6448 46.0796 51.6211 46.2715 51.5487C46.4634 51.4762 46.6342 51.3572 46.7687 51.2024" fill="#FFBE9D"/>
<path d="M45.96 49.9376C46.0272 49.9376 45.8592 50.324 45.3336 50.2952C45.0491 50.2597 44.7902 50.113 44.6136 49.8872C44.4048 49.6381 44.2474 49.3502 44.1504 49.04C44.0385 48.7116 44.0478 48.3541 44.1768 48.032C44.2302 47.8948 44.3145 47.7716 44.4231 47.6722C44.5317 47.5727 44.6617 47.4996 44.8032 47.4584C45.3144 47.3384 45.5472 47.66 45.492 47.6816C45.4368 47.7032 45.2208 47.5904 44.904 47.7416C44.5872 47.8928 44.3712 48.38 44.5584 48.9152C44.7456 49.4504 45.0624 49.9304 45.3888 49.9952C45.7152 50.06 45.9264 49.8992 45.96 49.9376Z" fill="#EB996E"/>
<path d="M56.5199 33.032C56.8906 33.7613 57.0152 34.591 56.875 35.397C56.7349 36.203 56.3375 36.9419 55.7423 37.5032C54.5231 38.6 52.7567 38.756 51.1823 39.2144C49.6079 39.6728 47.9207 40.832 47.9927 42.4712C48.0359 43.4648 48.7415 44.42 48.4871 45.38C48.1919 46.5056 46.7543 46.9856 46.3487 48.0752C45.6983 49.8272 48.0791 51.404 47.9735 53.2688C47.9111 54.3752 46.9751 55.2776 46.8719 56.3888C46.7231 57.9584 48.2639 59.6264 47.4071 60.9488C46.7495 61.9664 45.2183 61.82 44.0951 61.3784C42.9719 60.9368 41.7431 60.308 40.6175 60.7496C39.9407 61.0136 39.4631 61.6184 38.8607 62.0264C38.3106 62.3998 37.6621 62.6016 36.9973 62.6062C36.3324 62.6109 35.6812 62.4182 35.1259 62.0525C34.5706 61.6869 34.1363 61.1647 33.8779 60.5521C33.6195 59.9396 33.5487 59.2641 33.6743 58.6112C33.8567 57.6512 34.4375 56.828 34.9055 55.9712C35.3735 55.1144 35.7455 54.1136 35.4647 53.18C35.2463 52.46 34.6847 51.9176 34.2383 51.3176C33.7919 50.7176 33.4439 49.928 33.7319 49.2392C34.2359 48.0272 36.1679 48.1328 36.8687 47.024C37.8287 45.5 35.6015 43.5608 36.1727 41.852C36.8207 39.9176 40.2527 40.2632 40.9055 38.3288C41.1455 37.6256 40.9055 36.8504 40.9703 36.1112C41.1407 34.4312 42.9143 33.3392 44.5871 33.0488C46.2599 32.7584 48.0071 32.9744 49.6487 32.5424C50.5463 32.3024 51.3863 31.8776 52.2695 31.5824C53.1527 31.2872 54.1319 31.1408 55.0055 31.4648C55.8791 31.7888 56.5775 32.7032 56.4023 33.6248" fill="#263238"/>
<path d="M55.7639 36.6368C56.2496 37.4774 56.9213 38.1956 57.7275 38.7364C58.5337 39.2772 59.4531 39.6262 60.4151 39.7568C60.3839 38.4704 60.3167 37.1744 59.9687 35.9384C59.6207 34.7024 58.9679 33.5048 57.9599 32.72C56.9519 31.9352 55.5263 31.6088 54.3311 32.0768" fill="#263238"/>
<path d="M61.9441 61.3064C62.3785 61.364 64.8073 75.6104 55.4833 77.192C46.6585 78.692 43.9297 64.0544 43.9297 64.0544C43.9297 64.0544 49.8745 59.6936 61.9441 61.3064Z" fill="#FFBE9D"/>
<path d="M56.6015 41.8016C56.6567 41.9048 57.1367 41.7512 57.7343 41.684C58.3319 41.6168 58.8311 41.6504 58.8599 41.5376C58.8887 41.4248 58.3799 41.1944 57.6863 41.276C56.9927 41.3576 56.5463 41.72 56.6015 41.8016Z" fill="#263238"/>
<path d="M49.476 42.9056C49.4976 42.8864 49.4952 42.8456 49.476 42.7808V42.8888C49.8207 42.7137 50.1848 42.58 50.5608 42.4904C51.2232 42.3464 51.7848 42.5048 51.8304 42.3968C51.8496 42.3464 51.7296 42.2336 51.4848 42.1568C51.1611 42.0466 50.8134 42.0267 50.4792 42.0992C50.2581 42.133 50.0461 42.2115 49.8563 42.3299C49.6665 42.4483 49.5028 42.6042 49.3752 42.788L49.332 42.8744L49.368 42.8936C49.416 42.92 49.4568 42.92 49.476 42.9056Z" fill="#263238"/>
<path d="M45.4487 42.4904C44.9045 42.4971 44.3606 42.4626 43.8215 42.3872C43.2788 42.3539 42.7395 42.2777 42.2087 42.1592C42.753 42.1526 43.2969 42.1871 43.8359 42.2624C44.3785 42.2976 44.9177 42.3738 45.4487 42.4904Z" fill="#9E00FF"/>
<path d="M44.6568 43.4C44.2526 43.4881 43.8369 43.5108 43.4256 43.4672C43.0127 43.4662 42.6027 43.3989 42.2112 43.268C42.2112 43.2344 42.7608 43.3064 43.4328 43.3424C44.1048 43.3784 44.6544 43.3616 44.6568 43.4Z" fill="#9E00FF"/>
<path d="M56.5991 35.9384C56.5894 35.9898 56.5733 36.0398 56.5511 36.0872C56.4925 36.2259 56.4114 36.3541 56.3111 36.4664C55.9104 36.8576 55.3821 37.0911 54.8231 37.124C54.4438 37.1664 54.0607 37.16 53.6831 37.1048C53.2775 37.0544 52.8479 36.98 52.3967 36.9464C51.928 36.8931 51.4533 36.9448 51.0071 37.0976C50.5426 37.2981 50.1412 37.6207 49.8455 38.0312C49.5167 38.4392 49.2407 38.876 48.9167 39.2624C48.757 39.4534 48.5794 39.6286 48.3863 39.7856C48.1965 39.9322 47.9883 40.0532 47.7671 40.1456C47.357 40.2981 46.9324 40.4083 46.4999 40.4744C46.1292 40.5311 45.764 40.6187 45.4079 40.736C44.8919 40.898 44.4503 41.2383 44.1623 41.696C44.0733 41.8729 44.0187 42.0651 44.0015 42.2624C43.9946 42.2106 43.9946 42.1582 44.0015 42.1064C44.0167 41.9564 44.0581 41.8101 44.1239 41.6744C44.4016 41.1867 44.8493 40.8185 45.3815 40.64C45.741 40.5157 46.1103 40.4218 46.4855 40.3592C46.9095 40.2913 47.3253 40.1795 47.7263 40.0256C48.1592 39.8376 48.538 39.5438 48.8279 39.1712C49.1447 38.7944 49.4183 38.3552 49.7519 37.94C50.0644 37.517 50.4846 37.1855 50.9687 36.98C51.4315 36.8234 51.9234 36.7718 52.4087 36.8288C53.3279 36.9104 54.1319 37.1288 54.8087 37.0352C55.354 37.0167 55.8751 36.8058 56.2799 36.44C56.4117 36.2904 56.5194 36.1212 56.5991 35.9384Z" fill="#455A64"/>
<path d="M36.5713 62.2448C36.6437 62.2296 36.7151 62.2095 36.7849 62.1848C36.9782 62.0961 37.1308 61.9375 37.2121 61.7408C37.3454 61.4301 37.3523 61.0797 37.2313 60.764C37.1161 60.3896 36.8929 59.9912 36.7225 59.516C36.2845 58.4085 36.1656 57.2005 36.3793 56.0288C36.5252 55.3394 36.8255 54.6919 37.2577 54.1352C37.4896 53.8431 37.761 53.5846 38.0641 53.3672C38.3794 53.1521 38.7194 52.9757 39.0769 52.8416C39.4264 52.7169 39.7514 52.5317 40.0369 52.2944C40.1635 52.1737 40.2622 52.0267 40.3261 51.8637C40.3899 51.7008 40.4173 51.5259 40.4065 51.3512C40.3657 50.6528 39.9841 50.012 39.9961 49.3208C40.0027 48.9851 40.0899 48.6558 40.2505 48.3608C40.3995 48.0899 40.5834 47.8398 40.7977 47.6168C41.1844 47.2276 41.5965 46.8644 42.0313 46.5296C42.7993 45.896 43.2769 45.2072 43.4041 44.6648C43.4694 44.3838 43.4694 44.0915 43.4041 43.8104C43.4135 43.8276 43.4199 43.8463 43.4233 43.8656C43.4233 43.9016 43.4497 43.9568 43.4641 44.0288C43.499 44.2442 43.4917 44.4643 43.4425 44.6768C43.3603 45.012 43.2126 45.3277 43.0081 45.6056C42.7409 45.9726 42.4298 46.3055 42.0817 46.5968C41.6543 46.934 41.2486 47.2979 40.8673 47.6864C40.6611 47.9028 40.4837 48.1448 40.3393 48.4064C40.1892 48.6841 40.107 48.9933 40.0993 49.3088C40.1115 49.6426 40.1738 49.9727 40.2841 50.288C40.4048 50.6262 40.4853 50.9774 40.5241 51.3344C40.5367 51.5268 40.507 51.7196 40.4369 51.8992C40.3668 52.0787 40.2581 52.2407 40.1185 52.3736C39.823 52.6216 39.4857 52.8151 39.1225 52.9448C38.7737 53.0838 38.4426 53.2634 38.1361 53.48C37.8421 53.6906 37.5788 53.941 37.3537 54.224C36.9316 54.765 36.6371 55.3942 36.4921 56.0648C36.279 57.2158 36.3869 58.4032 36.8041 59.4968C36.9673 59.9768 37.1857 60.368 37.2985 60.7568C37.3531 60.9373 37.379 61.1251 37.3753 61.3136C37.3679 61.4736 37.3279 61.6305 37.2577 61.7744C37.1667 61.9774 37.0007 62.1374 36.7945 62.2208C36.723 62.2464 36.6465 62.2546 36.5713 62.2448Z" fill="#455A64"/>
</svg>
