<svg width="802" height="816" viewBox="0 0 802 816" fill="none" xmlns="http://www.w3.org/2000/svg">
<path d="M415.885 2.22626C327.726 -16.474 304.751 88.782 307.957 88.782C293.415 137.403 211.25 115.497 121.488 115.497C49.6793 115.497 44.3719 192.613 57.9074 247.467C71.4428 302.322 145.532 369.5 57.9074 387.452C-29.7168 405.404 0.559446 572.674 29.5894 629.487C66.8119 696.63 179.88 832.61 283.38 783.364C415.885 720.318 632.807 915.335 751.421 740.621C829.514 625.591 733.789 506.6 732.186 461.185C730.583 415.77 816.097 409.176 799 274C781.903 138.824 620.519 234.644 540.375 223.958C476.259 215.41 494.959 137.403 494.959 115.497C494.959 93.5904 486.411 17.1865 415.885 2.22626Z" fill="url(#paint0_linear_15_61)"/>
<defs>
<linearGradient id="paint0_linear_15_61" x1="400.631" y1="0" x2="400.631" y2="815.362" gradientUnits="userSpaceOnUse">
<stop offset="0.0625" stop-color="#9E00FF"/>
<stop offset="0.963542" stop-color="#A107FF" stop-opacity="0.36"/>
</linearGradient>
</defs>
</svg>
